<svg width="264" height="224" viewBox="0 0 264 224" fill="none" xmlns="http://www.w3.org/2000/svg">
    <g filter="url(#filter0_d_25_13357)">
        <rect x="12" y="12" width="240" height="200" rx="16" fill="white"/>
    </g>
    <path d="M127 122.5C127 124.985 129.015 127 131.5 127C133.985 127 136 124.985 136 122.5C136 120.015 133.985 118 131.5 118C129.015 118 127 120.015 127 122.5Z"
          fill="#BCB6F5"/>
    <path d="M152.865 48H111.054C109.863 47.9965 108.684 48.2315 107.584 48.6914C106.483 49.1514 105.483 49.8272 104.642 50.68C103.8 51.5329 103.134 52.5458 102.68 53.6607C102.227 54.7755 101.996 55.9701 102 57.1758V118.83C101.997 120.035 102.228 121.229 102.682 122.343C103.136 123.458 103.803 124.47 104.644 125.322C105.485 126.174 106.485 126.85 107.585 127.309C108.685 127.769 109.864 128.004 111.054 128H152.942C154.133 128.004 155.312 127.77 156.413 127.31C157.514 126.85 158.515 126.174 159.357 125.322C160.198 124.469 160.866 123.455 161.319 122.34C161.773 121.225 162.004 120.03 162 118.824V57.1758C161.974 54.7374 161.001 52.4074 159.291 50.691C157.581 48.9745 155.272 48.0098 152.864 48.006L152.865 48ZM131.96 125.987C131.494 125.991 131.032 125.901 130.601 125.722C130.17 125.543 129.779 125.279 129.449 124.945C129.12 124.612 128.859 124.215 128.683 123.779C128.506 123.342 128.417 122.875 128.42 122.403C128.417 121.931 128.506 121.463 128.683 121.027C128.86 120.591 129.12 120.194 129.45 119.861C129.779 119.527 130.17 119.263 130.601 119.084C131.032 118.905 131.494 118.815 131.96 118.818C132.425 118.815 132.887 118.905 133.318 119.084C133.749 119.263 134.14 119.527 134.47 119.861C134.799 120.194 135.059 120.591 135.236 121.027C135.413 121.463 135.502 121.931 135.499 122.403C135.502 122.875 135.413 123.342 135.237 123.779C135.06 124.215 134.799 124.612 134.47 124.945C134.141 125.279 133.749 125.543 133.318 125.722C132.887 125.901 132.425 125.991 131.96 125.987ZM156.311 111.929C156.307 113.2 155.807 114.419 154.919 115.318C154.032 116.217 152.829 116.724 151.574 116.728H112.347C111.092 116.724 109.889 116.217 109.001 115.318C108.113 114.419 107.613 113.201 107.609 111.929V58.4798C107.613 57.2082 108.113 55.9898 109.001 55.0906C109.889 54.1914 111.092 53.6845 112.347 53.6806H151.574C152.829 53.6845 154.032 54.1914 154.919 55.0907C155.807 55.9899 156.307 57.2083 156.311 58.4798V111.929Z"
          fill="#6165DE"/>
    <path d="M111.6 62.3998C111.6 61.5161 112.316 60.7998 113.2 60.7998H135.6C136.484 60.7998 137.2 61.5161 137.2 62.3998C137.2 63.2835 136.484 63.9998 135.6 63.9998H113.2C112.316 63.9998 111.6 63.2835 111.6 62.3998Z"
          fill="#BCB6F5"/>
    <path d="M111.6 68.7998C111.6 67.9162 112.316 67.1998 113.2 67.1998H135.6C136.484 67.1998 137.2 67.9162 137.2 68.7998C137.2 69.6835 136.484 70.3998 135.6 70.3998H113.2C112.316 70.3998 111.6 69.6835 111.6 68.7998Z"
          fill="#BCB6F5"/>
    <path d="M111.6 75.1998C111.6 74.3162 112.316 73.5998 113.2 73.5998H125.2C126.084 73.5998 126.8 74.3162 126.8 75.1998C126.8 76.0835 126.084 76.7998 125.2 76.7998H113.2C112.316 76.7998 111.6 76.0835 111.6 75.1998Z"
          fill="#BCB6F5"/>
    <path d="M111.6 81.5998C111.6 80.7162 112.316 79.9998 113.2 79.9998H151.6C152.484 79.9998 153.2 80.7162 153.2 81.5998C153.2 82.4835 152.484 83.1998 151.6 83.1998H113.2C112.316 83.1998 111.6 82.4835 111.6 81.5998Z"
          fill="#BCB6F5"/>
    <path fill-rule="evenodd" clip-rule="evenodd"
          d="M132.895 91.4447L128.993 102.785C128.304 104.787 125.746 104.958 124.835 103.063L122.061 97.294L120.185 101.352C119.798 102.187 119.009 102.714 118.146 102.714H107.6V99.428H117.677L120.009 94.3836C120.841 92.5833 123.211 92.563 124.07 94.3488L126.742 99.9053L130.836 88.005C131.599 85.7902 134.527 85.8927 135.155 88.1563L139.812 104.942L142.652 93.6032C143.254 91.2004 146.395 91.1676 147.04 93.5574L148.623 99.428H156.6V102.714H148.054C147.041 102.714 146.149 101.991 145.866 100.94L144.879 97.2817L142.049 108.58C141.45 110.973 138.326 111.018 137.667 108.644L132.895 91.4447Z"
          fill="#6165DE"/>
    <path d="M146.8 60.7998C145.916 60.7998 145.2 61.5162 145.2 62.3998V65.5998H142C141.116 65.5998 140.4 66.3162 140.4 67.1998C140.4 68.0834 141.116 68.7998 142 68.7998H145.2V71.9998C145.2 72.8834 145.916 73.5998 146.8 73.5998C147.684 73.5998 148.4 72.8834 148.4 71.9998V68.7998H151.6C152.484 68.7998 153.2 68.0834 153.2 67.1998C153.2 66.3162 152.484 65.5998 151.6 65.5998H148.4V62.3998C148.4 61.5162 147.684 60.7998 146.8 60.7998Z"
          fill="#6165DE"/>
    <path d="M66.8162 171H63.5208L68.5421 156.455H72.5051L77.5194 171H74.2239L70.5804 159.778H70.4668L66.8162 171ZM66.6103 165.283H74.3944V167.683H66.6103V165.283ZM86.8287 160.638C86.7718 160.065 86.528 159.62 86.0971 159.303C85.6663 158.985 85.0815 158.827 84.3429 158.827C83.841 158.827 83.4172 158.898 83.0716 159.04C82.7259 159.177 82.4608 159.369 82.2761 159.615C82.0962 159.861 82.0062 160.141 82.0062 160.453C81.9967 160.714 82.0512 160.941 82.1696 161.135C82.2927 161.329 82.4608 161.497 82.6738 161.639C82.8869 161.777 83.1331 161.897 83.4125 162.001C83.6918 162.101 83.9901 162.186 84.3074 162.257L85.6142 162.57C86.2486 162.712 86.831 162.901 87.3613 163.138C87.8916 163.375 88.3509 163.666 88.7392 164.011C89.1274 164.357 89.4281 164.764 89.6412 165.233C89.859 165.702 89.9702 166.239 89.975 166.845C89.9702 167.735 89.743 168.507 89.2931 169.161C88.8481 169.809 88.2041 170.313 87.3613 170.673C86.5233 171.028 85.5124 171.206 84.3287 171.206C83.1544 171.206 82.1317 171.026 81.2605 170.666C80.394 170.306 79.7169 169.774 79.2292 169.068C78.7463 168.358 78.493 167.48 78.4693 166.433H81.4451C81.4783 166.921 81.618 167.328 81.8642 167.655C82.1151 167.977 82.4489 168.221 82.8656 168.386C83.287 168.547 83.7628 168.628 84.2931 168.628C84.814 168.628 85.2662 168.552 85.6497 168.401C86.0379 168.249 86.3386 168.038 86.5517 167.768C86.7647 167.499 86.8713 167.188 86.8713 166.838C86.8713 166.511 86.7742 166.237 86.5801 166.014C86.3907 165.792 86.1113 165.602 85.742 165.446C85.3774 165.29 84.93 165.148 84.3997 165.02L82.8159 164.622C81.5895 164.324 80.6213 163.857 79.911 163.223C79.2008 162.589 78.8481 161.734 78.8528 160.659C78.8481 159.778 79.0824 159.009 79.5559 158.351C80.0342 157.693 80.6899 157.179 81.5233 156.81C82.3566 156.44 83.3036 156.256 84.3642 156.256C85.4437 156.256 86.3859 156.44 87.1909 156.81C88.0005 157.179 88.6303 157.693 89.0801 158.351C89.5299 159.009 89.7619 159.771 89.7761 160.638H86.8287ZM99.9341 160.638C99.8773 160.065 99.6335 159.62 99.2026 159.303C98.7717 158.985 98.187 158.827 97.4483 158.827C96.9464 158.827 96.5227 158.898 96.177 159.04C95.8314 159.177 95.5662 159.369 95.3816 159.615C95.2016 159.861 95.1117 160.141 95.1117 160.453C95.1022 160.714 95.1567 160.941 95.275 161.135C95.3981 161.329 95.5662 161.497 95.7793 161.639C95.9924 161.777 96.2386 161.897 96.5179 162.001C96.7973 162.101 97.0956 162.186 97.4128 162.257L98.7196 162.57C99.3541 162.712 99.9365 162.901 100.467 163.138C100.997 163.375 101.456 163.666 101.845 164.011C102.233 164.357 102.534 164.764 102.747 165.233C102.964 165.702 103.076 166.239 103.08 166.845C103.076 167.735 102.848 168.507 102.399 169.161C101.954 169.809 101.31 170.313 100.467 170.673C99.6287 171.028 98.6178 171.206 97.4341 171.206C96.2599 171.206 95.2372 171.026 94.3659 170.666C93.4995 170.306 92.8224 169.774 92.3347 169.068C91.8517 168.358 91.5984 167.48 91.5748 166.433H94.5506C94.5837 166.921 94.7234 167.328 94.9696 167.655C95.2206 167.977 95.5544 168.221 95.9711 168.386C96.3925 168.547 96.8683 168.628 97.3986 168.628C97.9194 168.628 98.3716 168.552 98.7551 168.401C99.1434 168.249 99.4441 168.038 99.6571 167.768C99.8702 167.499 99.9767 167.188 99.9767 166.838C99.9767 166.511 99.8797 166.237 99.6855 166.014C99.4962 165.792 99.2168 165.602 98.8475 165.446C98.4829 165.29 98.0355 165.148 97.5051 165.02L95.9213 164.622C94.695 164.324 93.7267 163.857 93.0165 163.223C92.3063 162.589 91.9535 161.734 91.9583 160.659C91.9535 159.778 92.1879 159.009 92.6614 158.351C93.1396 157.693 93.7954 157.179 94.6287 156.81C95.4621 156.44 96.409 156.256 97.4696 156.256C98.5492 156.256 99.4914 156.44 100.296 156.81C101.106 157.179 101.736 157.693 102.186 158.351C102.635 159.009 102.867 159.771 102.882 160.638H99.9341ZM105.149 171V156.455H114.95V158.99H108.224V162.456H114.446V164.991H108.224V168.464H114.979V171H105.149ZM125.286 160.638C125.229 160.065 124.985 159.62 124.554 159.303C124.123 158.985 123.539 158.827 122.8 158.827C122.298 158.827 121.874 158.898 121.529 159.04C121.183 159.177 120.918 159.369 120.733 159.615C120.553 159.861 120.463 160.141 120.463 160.453C120.454 160.714 120.508 160.941 120.627 161.135C120.75 161.329 120.918 161.497 121.131 161.639C121.344 161.777 121.59 161.897 121.869 162.001C122.149 162.101 122.447 162.186 122.764 162.257L124.071 162.57C124.706 162.712 125.288 162.901 125.818 163.138C126.349 163.375 126.808 163.666 127.196 164.011C127.584 164.357 127.885 164.764 128.098 165.233C128.316 165.702 128.427 166.239 128.432 166.845C128.427 167.735 128.2 168.507 127.75 169.161C127.305 169.809 126.661 170.313 125.818 170.673C124.98 171.028 123.969 171.206 122.786 171.206C121.611 171.206 120.589 171.026 119.718 170.666C118.851 170.306 118.174 169.774 117.686 169.068C117.203 168.358 116.95 167.48 116.926 166.433H119.902C119.935 166.921 120.075 167.328 120.321 167.655C120.572 167.977 120.906 168.221 121.323 168.386C121.744 168.547 122.22 168.628 122.75 168.628C123.271 168.628 123.723 168.552 124.107 168.401C124.495 168.249 124.796 168.038 125.009 167.768C125.222 167.499 125.328 167.188 125.328 166.838C125.328 166.511 125.231 166.237 125.037 166.014C124.848 165.792 124.568 165.602 124.199 165.446C123.834 165.29 123.387 165.148 122.857 165.02L121.273 164.622C120.047 164.324 119.078 163.857 118.368 163.223C117.658 162.589 117.305 161.734 117.31 160.659C117.305 159.778 117.539 159.009 118.013 158.351C118.491 157.693 119.147 157.179 119.98 156.81C120.814 156.44 121.761 156.256 122.821 156.256C123.901 156.256 124.843 156.44 125.648 156.81C126.458 157.179 127.087 157.693 127.537 158.351C127.987 159.009 128.219 159.771 128.233 160.638H125.286ZM138.391 160.638C138.334 160.065 138.09 159.62 137.66 159.303C137.229 158.985 136.644 158.827 135.905 158.827C135.403 158.827 134.98 158.898 134.634 159.04C134.288 159.177 134.023 159.369 133.839 159.615C133.659 159.861 133.569 160.141 133.569 160.453C133.559 160.714 133.614 160.941 133.732 161.135C133.855 161.329 134.023 161.497 134.236 161.639C134.449 161.777 134.696 161.897 134.975 162.001C135.254 162.101 135.553 162.186 135.87 162.257L137.177 162.57C137.811 162.712 138.394 162.901 138.924 163.138C139.454 163.375 139.913 163.666 140.302 164.011C140.69 164.357 140.991 164.764 141.204 165.233C141.421 165.702 141.533 166.239 141.537 166.845C141.533 167.735 141.305 168.507 140.856 169.161C140.411 169.809 139.767 170.313 138.924 170.673C138.086 171.028 137.075 171.206 135.891 171.206C134.717 171.206 133.694 171.026 132.823 170.666C131.956 170.306 131.279 169.774 130.792 169.068C130.309 168.358 130.055 167.48 130.032 166.433H133.008C133.041 166.921 133.18 167.328 133.427 167.655C133.678 167.977 134.011 168.221 134.428 168.386C134.849 168.547 135.325 168.628 135.856 168.628C136.376 168.628 136.829 168.552 137.212 168.401C137.6 168.249 137.901 168.038 138.114 167.768C138.327 167.499 138.434 167.188 138.434 166.838C138.434 166.511 138.337 166.237 138.143 166.014C137.953 165.792 137.674 165.602 137.305 165.446C136.94 165.29 136.492 165.148 135.962 165.02L134.378 164.622C133.152 164.324 132.184 163.857 131.474 163.223C130.763 162.589 130.411 161.734 130.415 160.659C130.411 159.778 130.645 159.009 131.118 158.351C131.597 157.693 132.252 157.179 133.086 156.81C133.919 156.44 134.866 156.256 135.927 156.256C137.006 156.256 137.948 156.44 138.753 156.81C139.563 157.179 140.193 157.693 140.643 158.351C141.092 159.009 141.324 159.771 141.339 160.638H138.391ZM143.606 156.455H147.399L151.404 166.227H151.575L155.58 156.455H159.373V171H156.39V161.533H156.269L152.505 170.929H150.474L146.71 161.497H146.589V171H143.606V156.455ZM161.907 171V156.455H171.708V158.99H164.982V162.456H171.204V164.991H164.982V168.464H171.736V171H161.907ZM186.319 156.455V171H183.663L177.335 161.845H177.228V171H174.153V156.455H176.852L183.13 165.602H183.258V156.455H186.319ZM188.306 158.99V156.455H200.252V158.99H195.799V171H192.759V158.99H188.306Z"
          fill="#2514BE"/>
    <defs>
        <filter id="filter0_d_25_13357" x="0" y="0" width="264" height="224" filterUnits="userSpaceOnUse"
                color-interpolation-filters="sRGB">
            <feFlood flood-opacity="0" result="BackgroundImageFix"/>
            <feColorMatrix in="SourceAlpha" type="matrix" values="0 0 0 0 0 0 0 0 0 0 0 0 0 0 0 0 0 0 127 0"
                           result="hardAlpha"/>
            <feOffset/>
            <feGaussianBlur stdDeviation="6"/>
            <feComposite in2="hardAlpha" operator="out"/>
            <feColorMatrix type="matrix" values="0 0 0 0 0 0 0 0 0 0 0 0 0 0 0 0 0 0 0.1 0"/>
            <feBlend mode="normal" in2="BackgroundImageFix" result="effect1_dropShadow_25_13357"/>
            <feBlend mode="normal" in="SourceGraphic" in2="effect1_dropShadow_25_13357" result="shape"/>
        </filter>
    </defs>
</svg>
