<svg width="264" height="223" viewBox="0 0 264 223" fill="none" xmlns="http://www.w3.org/2000/svg">
    <g filter="url(#filter0_d_1_441)">
        <rect x="12" y="12" width="240" height="199" rx="16" fill="white"/>
    </g>
    <path d="M133.314 114H163.376C165.926 114 168 111.993 168 109.527V79.7774C168 77.2786 165.955 75.9237 163.979 74.6119C161.915 73.2445 159.784 71.8354 159.784 69.0909V67.5819C159.779 67.4956 159.74 67.4147 159.677 67.3556C159.614 67.2964 159.53 67.2635 159.443 67.2635C159.356 67.2635 159.273 67.2964 159.209 67.3556C159.146 67.4147 159.108 67.4956 159.102 67.5819V69.0881C159.102 72.1908 161.493 73.7733 163.601 75.1713C165.515 76.4457 167.321 77.6382 167.321 79.7774V83.3868H142.337C142.247 83.3868 142.16 83.4225 142.096 83.486C142.033 83.5495 141.997 83.6357 141.997 83.7255V104.188C141.997 104.278 142.033 104.364 142.096 104.428C142.16 104.491 142.247 104.527 142.337 104.527H167.319V109.524C167.319 111.616 165.549 113.321 163.376 113.321H133.314C133.267 113.318 133.221 113.325 133.177 113.34C133.133 113.356 133.093 113.38 133.059 113.412C133.025 113.444 132.998 113.482 132.979 113.525C132.961 113.567 132.951 113.613 132.951 113.659C132.951 113.706 132.961 113.751 132.979 113.794C132.998 113.836 133.025 113.875 133.059 113.906C133.093 113.938 133.133 113.962 133.177 113.978C133.221 113.994 134.516 113.662 134.562 113.659L133.314 114ZM126.666 106.177C126.71 106.177 126.755 106.169 126.796 106.152C126.838 106.135 126.875 106.11 126.907 106.079C126.939 106.047 126.964 106.01 126.981 105.969C126.999 105.927 127.007 105.883 127.007 105.839V79.7774C127.007 77.6493 128.812 76.4457 130.725 75.1824C132.832 73.7789 135.225 72.1922 135.225 69.0881V67.5847C135.219 67.4984 135.181 67.4175 135.117 67.3583C135.054 67.2992 134.97 67.2662 134.884 67.2662C134.797 67.2662 134.713 67.2992 134.65 67.3583C134.586 67.4175 134.548 67.4984 134.542 67.5847V69.0881C134.542 71.8257 132.41 73.2417 130.345 74.6104C128.369 75.9237 126.327 77.2801 126.327 79.7705V105.839C126.326 105.883 126.335 105.927 126.352 105.969C126.369 106.01 126.393 106.047 126.425 106.079C126.456 106.111 126.494 106.136 126.535 106.153C126.577 106.17 126.666 106.323 126.666 106.179V106.177ZM105.899 104.269C107.291 104.272 108.639 103.786 109.707 102.897L117.613 96.3376C118.814 95.3232 119.564 93.8777 119.7 92.3157C119.835 90.7537 119.346 89.2016 118.337 87.9972C117.328 86.7928 115.883 86.0336 114.314 85.8849C112.746 85.7362 111.182 86.21 109.963 87.2031L102.059 93.7638C101.15 94.5156 100.486 95.519 100.151 96.6467C99.8165 97.7744 99.8257 98.9757 100.178 100.098C100.53 101.221 101.209 102.214 102.129 102.952C103.049 103.69 104.168 104.14 105.345 104.244C105.53 104.26 105.716 104.269 105.903 104.269H105.899ZM101.176 82.6927C102.377 82.6956 103.542 82.2762 104.463 81.5086L111.23 75.8905C112.278 75.0159 112.935 73.7638 113.058 72.4081C113.181 71.0524 112.759 69.7034 111.886 68.6563C111.008 67.6138 109.75 66.9595 108.389 66.8367C107.028 66.7139 105.673 67.1326 104.621 68.0012L97.8586 73.6123C97.0739 74.2616 96.5006 75.1281 96.2114 76.102C95.9221 77.0759 95.9299 78.1134 96.2338 79.0829C96.5377 80.0524 97.124 80.9102 97.9183 81.5476C98.7127 82.1851 99.6794 82.5735 100.696 82.6636C100.856 82.6774 101.275 82.6809 101.434 82.6809L101.176 82.6927ZM134.778 66.7615H159.547C160.417 66.7611 161.251 66.4172 161.866 65.8053C162.482 65.1934 162.828 64.3634 162.829 63.4977V53.2623C162.828 52.3974 162.482 51.5683 161.868 50.9567C161.253 50.3452 160.42 50.0011 159.551 50H134.778C133.909 50.0011 133.076 50.3452 132.462 50.9567C131.847 51.5683 131.501 52.3974 131.5 53.2623V63.4991C131.501 64.364 131.847 65.1931 132.462 65.8047C133.076 66.4163 133.909 66.7604 134.778 66.7615Z"
          fill="#BCB6F5" stroke="#6165DE" stroke-width="5"/>
    <path d="M89.1626 165H84.0064V150.455H89.2053C90.6683 150.455 91.9278 150.746 92.9837 151.328C94.0395 151.906 94.8516 152.737 95.4197 153.821C95.9927 154.905 96.2791 156.203 96.2791 157.713C96.2791 159.228 95.9927 160.53 95.4197 161.619C94.8516 162.708 94.0348 163.544 92.9695 164.126C91.9089 164.709 90.6399 165 89.1626 165ZM87.0817 162.365H89.0348C89.9439 162.365 90.7086 162.204 91.3288 161.882C91.9538 161.555 92.4226 161.051 92.7351 160.369C93.0523 159.683 93.2109 158.797 93.2109 157.713C93.2109 156.638 93.0523 155.76 92.7351 155.078C92.4226 154.396 91.9562 153.894 91.3359 153.572C90.7157 153.25 89.951 153.089 89.0419 153.089H87.0817V162.365ZM101.632 150.455V165H98.5572V150.455H101.632ZM112.053 154.638C111.996 154.065 111.753 153.62 111.322 153.303C110.891 152.985 110.306 152.827 109.567 152.827C109.066 152.827 108.642 152.898 108.296 153.04C107.951 153.177 107.685 153.369 107.501 153.615C107.321 153.861 107.231 154.141 107.231 154.453C107.221 154.714 107.276 154.941 107.394 155.135C107.517 155.329 107.685 155.497 107.898 155.639C108.112 155.777 108.358 155.897 108.637 156.001C108.916 156.101 109.215 156.186 109.532 156.257L110.839 156.57C111.473 156.712 112.056 156.901 112.586 157.138C113.116 157.375 113.576 157.666 113.964 158.011C114.352 158.357 114.653 158.764 114.866 159.233C115.084 159.702 115.195 160.239 115.2 160.845C115.195 161.735 114.968 162.507 114.518 163.161C114.073 163.809 113.429 164.313 112.586 164.673C111.748 165.028 110.737 165.206 109.553 165.206C108.379 165.206 107.356 165.026 106.485 164.666C105.619 164.306 104.942 163.774 104.454 163.068C103.971 162.358 103.718 161.48 103.694 160.433H106.67C106.703 160.921 106.843 161.328 107.089 161.655C107.34 161.977 107.674 162.221 108.09 162.386C108.512 162.547 108.987 162.628 109.518 162.628C110.039 162.628 110.491 162.552 110.874 162.401C111.263 162.249 111.563 162.038 111.776 161.768C111.989 161.499 112.096 161.188 112.096 160.838C112.096 160.511 111.999 160.237 111.805 160.014C111.615 159.792 111.336 159.602 110.967 159.446C110.602 159.29 110.155 159.148 109.624 159.02L108.04 158.622C106.814 158.324 105.846 157.857 105.136 157.223C104.425 156.589 104.073 155.734 104.077 154.659C104.073 153.778 104.307 153.009 104.781 152.351C105.259 151.693 105.915 151.179 106.748 150.81C107.581 150.44 108.528 150.256 109.589 150.256C110.668 150.256 111.611 150.44 112.415 150.81C113.225 151.179 113.855 151.693 114.305 152.351C114.754 153.009 114.987 153.771 115.001 154.638H112.053ZM117.268 165V150.455H123.007C124.11 150.455 125.05 150.665 125.826 151.087C126.603 151.503 127.195 152.083 127.602 152.827C128.014 153.565 128.22 154.418 128.22 155.384C128.22 156.349 128.011 157.202 127.595 157.94C127.178 158.679 126.574 159.254 125.784 159.666C124.998 160.078 124.046 160.284 122.929 160.284H119.271V157.82H122.431C123.023 157.82 123.511 157.718 123.895 157.514C124.283 157.306 124.572 157.019 124.761 156.655C124.955 156.286 125.052 155.862 125.052 155.384C125.052 154.901 124.955 154.479 124.761 154.119C124.572 153.755 124.283 153.473 123.895 153.274C123.506 153.071 123.014 152.969 122.417 152.969H120.343V165H117.268ZM130.217 165V150.455H140.018V152.99H133.293V156.456H139.514V158.991H133.293V162.464H140.047V165H130.217ZM154.63 150.455V165H151.973L145.645 155.845H145.539V165H142.463V150.455H145.162L151.441 159.602H151.569V150.455H154.63ZM165.061 154.638C165.004 154.065 164.76 153.62 164.33 153.303C163.899 152.985 163.314 152.827 162.575 152.827C162.073 152.827 161.65 152.898 161.304 153.04C160.958 153.177 160.693 153.369 160.509 153.615C160.329 153.861 160.239 154.141 160.239 154.453C160.229 154.714 160.284 154.941 160.402 155.135C160.525 155.329 160.693 155.497 160.906 155.639C161.119 155.777 161.366 155.897 161.645 156.001C161.924 156.101 162.223 156.186 162.54 156.257L163.847 156.57C164.481 156.712 165.063 156.901 165.594 157.138C166.124 157.375 166.583 157.666 166.972 158.011C167.36 158.357 167.661 158.764 167.874 159.233C168.091 159.702 168.203 160.239 168.207 160.845C168.203 161.735 167.975 162.507 167.526 163.161C167.08 163.809 166.437 164.313 165.594 164.673C164.756 165.028 163.745 165.206 162.561 165.206C161.387 165.206 160.364 165.026 159.493 164.666C158.626 164.306 157.949 163.774 157.462 163.068C156.979 162.358 156.725 161.48 156.702 160.433H159.678C159.711 160.921 159.85 161.328 160.097 161.655C160.348 161.977 160.681 162.221 161.098 162.386C161.519 162.547 161.995 162.628 162.526 162.628C163.046 162.628 163.499 162.552 163.882 162.401C164.27 162.249 164.571 162.038 164.784 161.768C164.997 161.499 165.104 161.188 165.104 160.838C165.104 160.511 165.007 160.237 164.812 160.014C164.623 159.792 164.344 159.602 163.974 159.446C163.61 159.29 163.162 159.148 162.632 159.02L161.048 158.622C159.822 158.324 158.854 157.857 158.143 157.223C157.433 156.589 157.08 155.734 157.085 154.659C157.08 153.778 157.315 153.009 157.788 152.351C158.267 151.693 158.922 151.179 159.756 150.81C160.589 150.44 161.536 150.256 162.597 150.256C163.676 150.256 164.618 150.44 165.423 150.81C166.233 151.179 166.863 151.693 167.312 152.351C167.762 153.009 167.994 153.771 168.009 154.638H165.061ZM170.276 165V150.455H180.077V152.99H173.351V156.456H179.573V158.991H173.351V162.464H180.105V165H170.276Z"
          fill="#2514BE"/>
    <defs>
        <filter id="filter0_d_1_441" x="0" y="0" width="264" height="223" filterUnits="userSpaceOnUse"
                color-interpolation-filters="sRGB">
            <feFlood flood-opacity="0" result="BackgroundImageFix"/>
            <feColorMatrix in="SourceAlpha" type="matrix" values="0 0 0 0 0 0 0 0 0 0 0 0 0 0 0 0 0 0 127 0"
                           result="hardAlpha"/>
            <feOffset/>
            <feGaussianBlur stdDeviation="6"/>
            <feComposite in2="hardAlpha" operator="out"/>
            <feColorMatrix type="matrix" values="0 0 0 0 0 0 0 0 0 0 0 0 0 0 0 0 0 0 0.1 0"/>
            <feBlend mode="normal" in2="BackgroundImageFix" result="effect1_dropShadow_1_441"/>
            <feBlend mode="normal" in="SourceGraphic" in2="effect1_dropShadow_1_441" result="shape"/>
        </filter>
    </defs>
</svg>
