<svg width="264" height="223" viewBox="0 0 264 223" fill="none" xmlns="http://www.w3.org/2000/svg">
    <g filter="url(#filter0_d_1_441)">
        <rect x="12" y="12" width="240" height="199" rx="16" fill="white"/>
    </g>
    <path fill-rule="evenodd" clip-rule="evenodd"
          d="M112.101 69.3043V84.3328C112.101 89.5966 112.101 94.8604 112.177 100.048C112.177 103.633 114.139 105.998 116.857 105.998C119.725 106.074 121.915 103.71 121.915 100.2C121.952 95.1655 121.952 90.1115 121.952 85.048C121.952 79.9845 121.952 74.9114 121.99 69.8383C122.066 67.5497 121.764 66.3291 119.272 68.0837C118.065 68.9992 116.932 68.3889 115.951 67.3209C115.196 66.4054 114.215 65.6426 112.932 66.1766C111.863 66.6564 111.961 67.6548 112.052 68.5788C112.077 68.8301 112.101 69.0759 112.101 69.3043ZM113.979 84.5289C113.899 85.9703 114.7 86.6109 115.981 86.7711C116.222 86.7711 116.462 86.691 116.622 86.6109C116.862 86.5309 117.103 86.3707 117.263 86.2105C117.31 86.1388 117.358 86.0743 117.404 86.0126C117.511 85.8676 117.607 85.7384 117.663 85.5699C117.743 85.3297 117.823 85.0894 117.823 84.8492C117.823 84.6089 117.823 84.2886 117.743 84.0484C117.663 83.8081 117.503 83.5679 117.343 83.3277C117.183 83.0874 116.942 82.9272 116.702 82.8472C116.462 82.687 116.142 82.687 115.901 82.687C115.661 82.687 115.421 82.687 115.181 82.7671C114.94 82.8472 114.7 83.0073 114.54 83.1675C114.492 83.2392 114.444 83.3037 114.399 83.3654C114.291 83.5104 114.196 83.6396 114.14 83.8081C113.979 84.0484 113.979 84.2886 113.979 84.5289ZM120.306 88.6931C120.386 88.5329 120.466 88.2927 120.466 88.1325C120.306 87.4118 120.065 86.7712 119.185 86.6911C118.304 86.611 117.983 87.2517 117.903 88.0525C117.903 88.2126 117.903 88.3728 117.983 88.5329C118.063 88.6931 118.144 88.8533 118.224 88.9333C118.304 89.0134 118.384 89.0935 118.544 89.1736C118.577 89.1736 118.624 89.1873 118.679 89.2034C118.757 89.2261 118.851 89.2537 118.944 89.2537C119.105 89.3337 119.345 89.3337 119.505 89.3337L119.985 89.0935C120.065 89.0134 120.226 88.8533 120.306 88.6931Z"
          fill="#BCB6F5"/>
    <path d="M125 63V101.817C125 105.823 121.453 109 117.151 109H116.849C112.472 109 109 105.754 109 101.817V63"
          stroke="#6165DE" stroke-width="4" stroke-linecap="round"/>
    <path d="M141.101 84.3328C141.101 79.2979 141.101 94.3393 141.101 89.3044C141.101 88.2364 140.573 86.7869 141.932 86.1766C143.215 85.6426 144.196 86.4055 144.951 87.3209C145.932 88.3889 147.065 88.9992 148.272 88.0838C150.764 86.3292 151.066 87.5498 150.99 89.8384C150.915 99.9845 150.99 90.1306 150.915 100.2C150.915 103.71 148.725 106.075 145.857 105.998C143.139 105.998 141.177 103.633 141.177 100.048C141.101 94.8604 141.101 89.5966 141.101 84.3328Z"
          fill="#BCB6F5"/>
    <path d="M154 63V101.817C154 105.823 150.453 109 146.151 109H145.849C141.472 109 138 105.754 138 101.817V63"
          stroke="#6165DE" stroke-width="4" stroke-linecap="round"/>
    <path d="M123.429 45H110.571C109.898 45 109.224 45.3152 108.735 45.9455C108.245 46.5758 108 47.3636 108 48.3091V57.6848V58H108.245H125.755H126V57.6848V48.3091C126 47.4424 125.755 46.5758 125.265 45.9455C124.776 45.3152 124.102 45 123.429 45ZM123.306 48.7818V55.0061H110.694V48.7818C110.694 48.703 110.694 48.6242 110.755 48.5455C110.816 48.4667 110.878 48.4667 110.939 48.4667H122.939C123 48.4667 123.061 48.4667 123.122 48.5455C123.245 48.6242 123.306 48.703 123.306 48.7818Z"
          fill="#6165DE" stroke="#6165DE" stroke-width="0.8"/>
    <path d="M152.429 45H139.571C138.898 45 138.224 45.3152 137.735 45.9455C137.245 46.5758 137 47.3636 137 48.3091V57.6848V58H137.245H154.755H155V57.6848V48.3091C155 47.4424 154.755 46.5758 154.265 45.9455C153.776 45.3152 153.102 45 152.429 45ZM152.306 48.7818V55.0061H139.694V48.7818C139.694 48.703 139.694 48.6242 139.755 48.5455C139.816 48.4667 139.878 48.4667 139.939 48.4667H151.939C152 48.4667 152.061 48.4667 152.122 48.5455C152.245 48.6242 152.306 48.703 152.306 48.7818Z"
          fill="#6165DE" stroke="#6165DE" stroke-width="0.8"/>
    <path d="M97 116V58C97 56.8954 97.8954 56 99 56H165C166.105 56 167 56.8954 167 58V116" stroke="#6165DE"
          stroke-width="6" stroke-linecap="round"/>
    <path d="M57.9118 150.455V165H54.8365V150.455H57.9118ZM72.6081 150.455V165H69.9519L63.6238 155.845H63.5172V165H60.4419V150.455H63.1408L69.4192 159.602H69.5471V150.455H72.6081ZM77.7768 150.455L81.2924 161.506H81.4274L84.9501 150.455H88.3592L83.345 165H79.3819L74.3606 150.455H77.7768ZM90.1099 165V150.455H99.911V152.99H93.1852V156.456H99.4068V158.991H93.1852V162.464H99.9395V165H90.1099ZM110.247 154.638C110.19 154.065 109.946 153.62 109.515 153.303C109.084 152.985 108.499 152.827 107.761 152.827C107.259 152.827 106.835 152.898 106.49 153.04C106.144 153.177 105.879 153.369 105.694 153.615C105.514 153.861 105.424 154.141 105.424 154.453C105.415 154.714 105.469 154.941 105.588 155.135C105.711 155.329 105.879 155.497 106.092 155.639C106.305 155.777 106.551 155.897 106.83 156.001C107.11 156.101 107.408 156.186 107.725 156.257L109.032 156.57C109.667 156.712 110.249 156.901 110.779 157.138C111.31 157.375 111.769 157.666 112.157 158.011C112.545 158.357 112.846 158.764 113.059 159.233C113.277 159.702 113.388 160.239 113.393 160.845C113.388 161.735 113.161 162.507 112.711 163.161C112.266 163.809 111.622 164.313 110.779 164.673C109.941 165.028 108.93 165.206 107.747 165.206C106.572 165.206 105.55 165.026 104.678 164.666C103.812 164.306 103.135 163.774 102.647 163.068C102.164 162.358 101.911 161.48 101.887 160.433H104.863C104.896 160.921 105.036 161.328 105.282 161.655C105.533 161.977 105.867 162.221 106.284 162.386C106.705 162.547 107.181 162.628 107.711 162.628C108.232 162.628 108.684 162.552 109.068 162.401C109.456 162.249 109.757 162.038 109.97 161.768C110.183 161.499 110.289 161.188 110.289 160.838C110.289 160.511 110.192 160.237 109.998 160.014C109.809 159.792 109.529 159.602 109.16 159.446C108.795 159.29 108.348 159.148 107.818 159.02L106.234 158.622C105.008 158.324 104.039 157.857 103.329 157.223C102.619 156.589 102.266 155.734 102.271 154.659C102.266 153.778 102.5 153.009 102.974 152.351C103.452 151.693 104.108 151.179 104.941 150.81C105.775 150.44 106.722 150.256 107.782 150.256C108.862 150.256 109.804 150.44 110.609 150.81C111.419 151.179 112.048 151.693 112.498 152.351C112.948 153.009 113.18 153.771 113.194 154.638H110.247ZM114.907 152.99V150.455H126.854V152.99H122.4V165H119.361V152.99H114.907ZM131.896 150.455V165H128.821V150.455H131.896ZM144.071 155.156C143.972 154.811 143.832 154.505 143.652 154.24C143.472 153.97 143.252 153.743 142.992 153.558C142.736 153.369 142.442 153.224 142.111 153.125C141.784 153.026 141.422 152.976 141.024 152.976C140.281 152.976 139.628 153.161 139.064 153.53C138.505 153.899 138.07 154.437 137.757 155.142C137.445 155.843 137.289 156.7 137.289 157.713C137.289 158.726 137.442 159.588 137.75 160.298C138.058 161.009 138.494 161.551 139.057 161.925C139.62 162.294 140.286 162.479 141.053 162.479C141.749 162.479 142.343 162.356 142.835 162.109C143.333 161.858 143.711 161.506 143.972 161.051C144.237 160.597 144.369 160.059 144.369 159.439L144.994 159.531H141.244V157.216H147.331V159.048C147.331 160.327 147.061 161.425 146.521 162.344C145.982 163.258 145.238 163.963 144.291 164.46C143.344 164.953 142.26 165.199 141.039 165.199C139.675 165.199 138.477 164.898 137.445 164.297C136.413 163.691 135.608 162.831 135.03 161.719C134.457 160.601 134.171 159.276 134.171 157.741C134.171 156.562 134.341 155.511 134.682 154.588C135.028 153.66 135.511 152.874 136.131 152.23C136.751 151.586 137.473 151.096 138.297 150.76C139.121 150.424 140.013 150.256 140.975 150.256C141.798 150.256 142.566 150.376 143.276 150.618C143.986 150.855 144.616 151.191 145.165 151.626C145.719 152.062 146.171 152.58 146.521 153.182C146.872 153.778 147.097 154.437 147.196 155.156H144.071ZM151.699 165H148.404L153.425 150.455H157.388L162.402 165H159.107L155.463 153.778H155.35L151.699 165ZM151.493 159.283H159.277V161.683H151.493V159.283ZM161.822 152.99V150.455H173.768V152.99H169.314V165H166.275V152.99H161.822ZM178.81 150.455V165H175.735V150.455H178.81ZM194.707 157.727C194.707 159.313 194.406 160.663 193.805 161.776C193.208 162.888 192.394 163.738 191.362 164.325C190.334 164.908 189.179 165.199 187.896 165.199C186.603 165.199 185.443 164.905 184.416 164.318C183.388 163.731 182.576 162.881 181.98 161.768C181.383 160.656 181.085 159.309 181.085 157.727C181.085 156.141 181.383 154.792 181.98 153.679C182.576 152.566 183.388 151.719 184.416 151.136C185.443 150.549 186.603 150.256 187.896 150.256C189.179 150.256 190.334 150.549 191.362 151.136C192.394 151.719 193.208 152.566 193.805 153.679C194.406 154.792 194.707 156.141 194.707 157.727ZM191.589 157.727C191.589 156.7 191.435 155.833 191.127 155.128C190.824 154.422 190.396 153.887 189.842 153.523C189.288 153.158 188.639 152.976 187.896 152.976C187.152 152.976 186.504 153.158 185.95 153.523C185.396 153.887 184.965 154.422 184.657 155.128C184.354 155.833 184.203 156.7 184.203 157.727C184.203 158.755 184.354 159.621 184.657 160.327C184.965 161.032 185.396 161.567 185.95 161.932C186.504 162.296 187.152 162.479 187.896 162.479C188.639 162.479 189.288 162.296 189.842 161.932C190.396 161.567 190.824 161.032 191.127 160.327C191.435 159.621 191.589 158.755 191.589 157.727ZM209.151 150.455V165H206.495L200.167 155.845H200.06V165H196.985V150.455H199.684L205.962 159.602H206.09V150.455H209.151Z"
          fill="#2514BE"/>
    <defs>
        <filter id="filter0_d_1_441" x="0" y="0" width="264" height="223" filterUnits="userSpaceOnUse"
                color-interpolation-filters="sRGB">
            <feFlood flood-opacity="0" result="BackgroundImageFix"/>
            <feColorMatrix in="SourceAlpha" type="matrix" values="0 0 0 0 0 0 0 0 0 0 0 0 0 0 0 0 0 0 127 0"
                           result="hardAlpha"/>
            <feOffset/>
            <feGaussianBlur stdDeviation="6"/>
            <feComposite in2="hardAlpha" operator="out"/>
            <feColorMatrix type="matrix" values="0 0 0 0 0 0 0 0 0 0 0 0 0 0 0 0 0 0 0.1 0"/>
            <feBlend mode="normal" in2="BackgroundImageFix" result="effect1_dropShadow_1_441"/>
            <feBlend mode="normal" in="SourceGraphic" in2="effect1_dropShadow_1_441" result="shape"/>
        </filter>
    </defs>
</svg>
