<svg width="264" height="224" viewBox="0 0 264 224" fill="none" xmlns="http://www.w3.org/2000/svg">
      <g filter="url(#filter0_d_402_2743)">
            <rect x="12" y="12" width="240" height="200" rx="16" fill="white" />
      </g>
      <path
            d="M167.103 75.793L166.978 69.8563C166.97 69.5076 166.705 69.2179 166.36 69.1796L156.855 68.1178C156.483 68.0764 156.145 68.3359 156.09 68.7052L155.462 72.8621L154.07 73.1407C153.409 71.7333 152.554 70.423 151.531 69.2529C146.139 63.133 138.677 63.5231 133.365 64.9352C132.749 65.0976 132.123 65.2234 131.49 65.311C131.889 61.5426 133.081 56.3461 136.604 55.6615C137.578 55.4657 138.279 54.6076 138.271 53.6142V52.081C138.268 51.3359 137.868 50.6482 137.222 50.2772C136.575 49.9063 135.781 49.9079 135.136 50.2804C132.908 51.5684 130.262 54.684 128.642 59.7165C127.169 57.1326 123.053 52.3819 113.013 53.5966C112.813 53.6205 112.631 53.7304 112.518 53.8991C112.405 54.0663 112.37 54.2765 112.424 54.4723C112.45 54.563 114.793 62.5631 124.732 62.5631C125.808 62.5567 126.881 62.4707 127.943 62.3036C127.728 63.2668 127.553 64.2873 127.419 65.3683C126.626 65.2807 125.839 65.1342 125.067 64.9305C119.756 63.5263 112.292 63.1362 106.901 69.2481C102.055 74.7407 100.992 83.9826 104.058 93.0923L103.996 93.0732L97.1968 90.2377C96.8976 90.1119 96.5506 90.2107 96.3611 90.4749L93.1313 94.9693C92.9562 95.2129 92.9562 95.5408 93.1313 95.7844L96.7082 100.736C98.2427 103.969 100.602 106.743 103.548 108.777L96.9676 107.543C96.6524 107.484 96.3373 107.65 96.2051 107.941L93.9018 113.015C93.776 113.292 93.8445 113.619 94.0705 113.822L98.655 117.949C104.782 124.532 113.675 128.003 124.145 128.003C126.407 127.998 128.666 127.845 130.907 127.544C146.099 125.532 160.384 117.158 165.645 107.177C167.387 103.958 168.541 100.454 169.052 96.8304C169.638 95.7271 170.059 94.5458 170.306 93.3215C172.759 84.6241 167.988 77.081 167.103 75.7914V75.793Z"
            fill="#6269DB" stroke="#6269DB" stroke-width="2" />
      <path
            d="M114.059 54.8887C123.616 54.0401 126.845 59.0027 127.731 60.9355C118.274 62.378 114.971 56.9807 114.059 54.8887Z"
            fill="#BCB6F5" />
      <path
            d="M135.832 51.4849C136.047 51.3576 136.313 51.3576 136.53 51.4849C136.746 51.6075 136.878 51.8368 136.875 52.0836V53.6152C136.88 53.94 136.654 54.2218 136.337 54.2886C132.037 55.1245 130.541 60.6045 130.068 65.4461C129.651 65.47 129.233 65.4748 128.803 65.4636C129.872 57.0605 133.669 52.7363 135.832 51.4833V51.4849Z"
            fill="#BCB6F5" />
      <path
            d="M107.944 70.1697C112.865 64.583 119.785 64.9667 124.707 66.269C125.778 66.554 126.875 66.7371 127.981 66.8135C128.913 66.8804 129.847 66.8708 130.775 66.7849C131.77 66.6973 132.754 66.5253 133.72 66.269C138.652 64.9635 145.561 64.5814 150.486 70.1697C151.347 71.1536 152.076 72.2458 152.657 73.416L152.458 73.4558C152.102 73.5258 151.858 73.8586 151.901 74.22L152.808 81.9497C146.853 91.0741 136.89 95.7405 123.18 95.8026C117.282 95.7883 111.408 95.032 105.7 93.5546C102.405 84.6117 103.272 75.473 107.944 70.1713V70.1697Z"
            fill="white" />
      <path
            d="M107.944 70.1697C112.865 64.583 119.785 64.9667 124.707 66.269C125.778 66.554 126.875 66.7371 127.981 66.8135C128.913 66.8804 129.847 66.8708 130.775 66.7849C131.77 66.6973 132.754 66.5253 133.72 66.269C138.652 64.9635 145.561 64.5814 150.486 70.1697C151.347 71.1536 152.076 72.2458 152.657 73.416L152.458 73.4558C152.102 73.5258 151.858 73.8586 151.901 74.22L152.808 81.9497C146.853 91.0741 136.89 95.7405 123.18 95.8026C117.282 95.7883 111.408 95.032 105.7 93.5546C102.405 84.6117 103.272 75.473 107.944 70.1713V70.1697Z"
            stroke="#6269DB" />
      <path
            d="M93.7481 95.9639L97.0491 100.531C99.092 104.81 102.541 108.259 106.823 110.302L106.968 110.371L107.128 110.391C112.904 111.124 118.76 110.991 124.498 109.996L124.498 109.996L124.507 109.995C138.933 107.365 148.946 99.2283 154.154 85.8723L154.244 85.6396L154.215 85.3916L154.042 83.9238L153.743 81.399L152.242 83.4505C146.214 91.6851 136.264 96.1394 123.146 96.1947H122.901C116.457 96.1552 110.05 95.2295 103.859 93.4438L103.857 93.443L97.559 90.8158L96.8256 90.5099L96.3619 91.1551L93.7465 94.7946L93.326 95.3798L93.7481 95.9639Z"
            fill="#BCB6F5" stroke="#6269DB" stroke-width="2" />
      <path
            d="M163.673 107.421L164.434 105.959H164.39C167.331 99.6467 167.985 93.4134 166.253 87.4501C165.477 84.6593 164.141 82.0597 162.328 79.8136L160.519 73.7156L160.26 72.8412L159.365 73.0192L152.576 74.3705L152.488 74.388L152.405 74.4208L151.642 74.7213L150.927 75.0031L151.015 75.767L152.231 86.241C146 102.514 133.309 108.021 123.68 109.79C117.189 110.959 110.542 110.928 104.06 109.7C104.06 109.7 104.06 109.7 104.06 109.7L97.4094 108.438L96.6341 108.291L96.3108 109.011L94.4882 113.07L94.1914 113.731L94.7268 114.219L98.8411 117.968L98.8528 117.98C106.051 125.811 117.172 129.074 130.033 127.351L129.9 126.36L130.033 127.351C137.377 126.367 144.49 123.847 150.406 120.358C156.312 116.875 161.09 112.386 163.673 107.421Z"
            fill="white" stroke="#6269DB" stroke-width="2" />
      <path
            d="M169.233 91.8717C169.12 90.0837 168.806 88.3149 168.297 86.597C167.49 83.7742 166.121 81.144 164.272 78.8625L162.263 72.1757C162.16 71.8318 161.814 71.6232 161.463 71.6917L156.913 72.5865L157.365 69.5853L165.6 70.504L165.723 76.0413C165.727 76.1846 165.777 76.3215 165.863 76.4362C165.91 76.503 170.971 83.607 169.234 91.8717H169.233Z"
            fill="#BCB6F5" />
      <path
            d="M133.13 119.911C130.007 120.565 126.826 120.916 123.634 120.956C123.249 120.959 122.94 121.272 122.943 121.656C122.947 122.041 123.26 122.35 123.645 122.349H123.655C126.937 122.307 130.207 121.947 133.42 121.274C133.604 121.241 133.767 121.132 133.872 120.976C133.977 120.82 134.013 120.629 133.974 120.444C133.934 120.261 133.822 120.101 133.665 120C133.506 119.9 133.313 119.868 133.13 119.911Z"
            fill="#6269DB" stroke="#6269DB" stroke-width="2" />
      <path
            d="M160.239 102.57C160.084 102.469 159.897 102.432 159.715 102.469C159.534 102.505 159.376 102.613 159.274 102.768C154.292 109.356 147.523 114.374 139.774 117.231C139.6 117.296 139.462 117.426 139.384 117.595C139.307 117.764 139.301 117.955 139.366 118.129C139.501 118.488 139.904 118.67 140.264 118.535C148.311 115.616 155.325 110.4 160.436 103.535C160.648 103.214 160.559 102.784 160.239 102.572V102.57Z"
            fill="#6269DB" stroke="#6269DB" stroke-width="2" />
      <path
            d="M115.107 70.6097C115.021 70.6495 106.646 74.789 108.453 85.6296C108.526 85.999 108.879 86.2442 109.25 86.1821C109.621 86.12 109.876 85.7745 109.826 85.4004C108.196 75.62 115.398 72.0139 115.708 71.8642C116.031 71.6859 116.159 71.2863 115.998 70.9536C115.839 70.6208 115.447 70.4696 115.105 70.6097V70.6065L115.107 70.6097Z"
            fill="#6269DB" stroke="#6269DB" stroke-width="2" />
      <path
            d="M80.5396 171V156.455H83.6149V168.464H89.8507V171H80.5396ZM94.9625 156.455V171H91.8873V156.455H94.9625ZM97.4927 171V156.455H107.123V158.99H100.568V162.456H106.484V164.991H100.568V171H97.4927ZM109.192 171V156.455H118.993V158.99H112.267V162.456H118.489V164.991H112.267V168.464H119.021V171H109.192ZM129.329 160.638C129.272 160.065 129.028 159.62 128.597 159.303C128.166 158.985 127.581 158.827 126.843 158.827C126.341 158.827 125.917 158.898 125.572 159.04C125.226 159.177 124.961 159.369 124.776 159.615C124.596 159.861 124.506 160.141 124.506 160.453C124.497 160.714 124.551 160.941 124.67 161.135C124.793 161.329 124.961 161.497 125.174 161.639C125.387 161.777 125.633 161.897 125.912 162.001C126.192 162.101 126.49 162.186 126.807 162.257L128.114 162.57C128.749 162.712 129.331 162.901 129.861 163.138C130.392 163.375 130.851 163.666 131.239 164.011C131.627 164.357 131.928 164.764 132.141 165.233C132.359 165.702 132.47 166.239 132.475 166.845C132.47 167.735 132.243 168.507 131.793 169.161C131.348 169.809 130.704 170.313 129.861 170.673C129.023 171.028 128.012 171.206 126.829 171.206C125.654 171.206 124.632 171.026 123.76 170.666C122.894 170.306 122.217 169.774 121.729 169.068C121.246 168.358 120.993 167.48 120.969 166.433H123.945C123.978 166.921 124.118 167.328 124.364 167.655C124.615 167.977 124.949 168.221 125.366 168.386C125.787 168.547 126.263 168.628 126.793 168.628C127.314 168.628 127.766 168.552 128.15 168.401C128.538 168.249 128.839 168.038 129.052 167.768C129.265 167.499 129.371 167.188 129.371 166.838C129.371 166.511 129.274 166.237 129.08 166.014C128.891 165.792 128.611 165.602 128.242 165.446C127.877 165.29 127.43 165.148 126.9 165.02L125.316 164.622C124.09 164.324 123.121 163.857 122.411 163.223C121.701 162.589 121.348 161.734 121.353 160.659C121.348 159.778 121.582 159.009 122.056 158.351C122.534 157.693 123.19 157.179 124.023 156.81C124.857 156.44 125.804 156.256 126.864 156.256C127.944 156.256 128.886 156.44 129.691 156.81C130.501 157.179 131.13 157.693 131.58 158.351C132.03 159.009 132.262 159.771 132.276 160.638H129.329ZM133.99 158.99V156.455H145.936V158.99H141.482V171H138.443V158.99H133.99ZM147.051 156.455H150.495L153.812 162.719H153.954L157.271 156.455H160.715L155.41 165.858V171H152.356V165.858L147.051 156.455ZM162.395 171V156.455H165.47V168.464H171.706V171H162.395ZM173.743 171V156.455H183.544V158.99H176.818V162.456H183.04V164.991H176.818V168.464H183.572V171H173.743Z"
            fill="#2514BE" />
      <defs>
            <filter id="filter0_d_402_2743" x="0" y="0" width="264" height="224"
                  filterUnits="userSpaceOnUse"
                  color-interpolation-filters="sRGB">
                  <feFlood flood-opacity="0" result="BackgroundImageFix" />
                  <feColorMatrix in="SourceAlpha" type="matrix"
                        values="0 0 0 0 0 0 0 0 0 0 0 0 0 0 0 0 0 0 127 0"
                        result="hardAlpha" />
                  <feOffset />
                  <feGaussianBlur stdDeviation="6" />
                  <feComposite in2="hardAlpha" operator="out" />
                  <feColorMatrix type="matrix" values="0 0 0 0 0 0 0 0 0 0 0 0 0 0 0 0 0 0 0.1 0" />
                  <feBlend mode="normal" in2="BackgroundImageFix"
                        result="effect1_dropShadow_402_2743" />
                  <feBlend mode="normal" in="SourceGraphic" in2="effect1_dropShadow_402_2743"
                        result="shape" />
            </filter>
      </defs>
</svg>