<svg width="264" height="224" viewBox="0 0 264 224" fill="none" xmlns="http://www.w3.org/2000/svg">
    <g filter="url(#filter0_d_25_13353)">
        <rect x="12" y="12" width="240" height="200" rx="16" fill="white" />
    </g>
    <path
        d="M164 108C166.209 108 168 106.209 168 104C168 101.791 166.209 100 164 100C161.791 100 160 101.791 160 104C160 106.209 161.791 108 164 108Z"
        fill="#BCB6F5" />
    <path
        d="M166.427 96.1446V96.2231L166.502 96.2468C169.667 97.2497 172 100.259 172 103.77C172 108.202 168.417 111.797 164.001 111.797C159.586 111.797 156.003 108.202 156.003 103.77C156.003 100.176 158.335 97.249 161.503 96.1613L161.576 96.1364V96.0598V88.7687C161.576 82.7791 156.715 77.9011 150.745 77.9011C144.775 77.9011 139.914 82.7791 139.914 88.7687V106.348C139.914 115.016 132.953 122 124.316 122C115.679 122 108.718 115.016 108.718 106.348V92.7826V92.6889L108.625 92.6763C99.3046 91.4124 92 83.4919 92 73.719V59.5695C92 58.2726 93.0501 57.2196 94.3412 57.2196H100.843H100.95V57.1124V56.3498C100.95 55.0529 102 54 103.292 54C104.583 54 105.633 55.0529 105.633 56.3498V62.8738C105.633 64.1708 104.583 65.2237 103.292 65.2237C102 65.2237 100.95 64.1708 100.95 62.8738V62.1113V62.004H100.843H96.8743H96.7669V62.1113V73.8036C96.7669 81.742 103.232 88.2298 111.144 88.2298C119.057 88.2298 125.521 81.742 125.521 73.8036V62.1113V62.004H125.414H121.445H121.338V62.1113V62.8738C121.338 64.1708 120.288 65.2237 118.997 65.2237C117.706 65.2237 116.656 64.1708 116.656 62.8738V56.3498C116.656 55.0529 117.706 54 118.997 54C120.288 54 121.338 55.0529 121.338 56.3498V57.1124V57.2196H121.445H127.947C129.238 57.2196 130.288 58.2726 130.288 59.5695V73.8036C130.288 83.4922 122.983 91.4971 113.663 92.761L113.57 92.7736V92.8673V106.433C113.57 112.422 118.43 117.3 124.401 117.3C130.371 117.3 135.232 112.422 135.232 106.433V88.8534C135.232 80.1853 142.192 73.2015 150.829 73.2015C159.466 73.2015 166.427 80.1853 166.427 88.8534V96.1446ZM160.77 103.855C160.77 105.608 162.253 107.097 164.001 107.097C165.75 107.097 167.233 105.608 167.233 103.855C167.233 102.101 165.75 100.613 164.001 100.613C162.253 100.613 160.77 102.101 160.77 103.855Z"
        fill="#6165DE" />
    <path
        d="M45.608 156.455H49.4006L53.4062 166.227H53.5767L57.5824 156.455H61.375V171H58.392V161.533H58.2713L54.5071 170.929H52.4759L48.7116 161.497H48.5909V171H45.608V156.455ZM63.9087 171V156.455H73.7099V158.99H66.984V162.456H73.2056V164.991H66.984V168.464H73.7383V171H63.9087ZM81.3111 171H76.1548V156.455H81.3537C82.8168 156.455 84.0762 156.746 85.1321 157.328C86.188 157.906 87 158.737 87.5682 159.821C88.1411 160.905 88.4276 162.203 88.4276 163.713C88.4276 165.228 88.1411 166.53 87.5682 167.619C87 168.708 86.1832 169.544 85.1179 170.126C84.0573 170.709 82.7884 171 81.3111 171ZM79.2301 168.365H81.1832C82.0923 168.365 82.857 168.204 83.4773 167.882C84.1023 167.555 84.571 167.051 84.8835 166.369C85.2008 165.683 85.3594 164.797 85.3594 163.713C85.3594 162.638 85.2008 161.76 84.8835 161.078C84.571 160.396 84.1046 159.894 83.4844 159.572C82.8641 159.25 82.0994 159.089 81.1903 159.089H79.2301V168.365ZM93.7809 156.455V171H90.7056V156.455H93.7809ZM109.145 161.547H106.034C105.977 161.144 105.861 160.787 105.686 160.474C105.511 160.157 105.286 159.887 105.011 159.665C104.737 159.442 104.42 159.272 104.06 159.153C103.705 159.035 103.319 158.976 102.902 158.976C102.149 158.976 101.493 159.163 100.935 159.537C100.376 159.906 99.9427 160.446 99.6349 161.156C99.3272 161.862 99.1733 162.719 99.1733 163.727C99.1733 164.764 99.3272 165.635 99.6349 166.341C99.9474 167.046 100.383 167.579 100.942 167.939C101.5 168.299 102.147 168.479 102.881 168.479C103.293 168.479 103.674 168.424 104.024 168.315C104.379 168.206 104.694 168.048 104.969 167.839C105.243 167.626 105.471 167.368 105.651 167.065C105.835 166.762 105.963 166.417 106.034 166.028L109.145 166.043C109.064 166.71 108.863 167.354 108.541 167.974C108.224 168.59 107.795 169.142 107.256 169.629C106.721 170.112 106.081 170.496 105.338 170.78C104.599 171.059 103.764 171.199 102.831 171.199C101.534 171.199 100.374 170.905 99.3509 170.318C98.3329 169.731 97.5279 168.881 96.9361 167.768C96.349 166.656 96.0554 165.309 96.0554 163.727C96.0554 162.141 96.3537 160.792 96.9503 159.679C97.5469 158.566 98.3565 157.719 99.3793 157.136C100.402 156.549 101.553 156.256 102.831 156.256C103.674 156.256 104.455 156.374 105.175 156.611C105.899 156.848 106.541 157.193 107.099 157.648C107.658 158.098 108.113 158.649 108.463 159.303C108.818 159.956 109.045 160.704 109.145 161.547ZM113.584 171H110.288L115.31 156.455H119.273L124.287 171H120.991L117.348 159.778H117.234L113.584 171ZM113.378 165.283H121.162V167.683H113.378V165.283ZM126.038 171V156.455H129.113V168.464H135.349V171H126.038ZM142.014 171V156.455H147.753C148.851 156.455 149.789 156.651 150.565 157.044C151.347 157.432 151.941 157.984 152.348 158.699C152.76 159.409 152.966 160.245 152.966 161.206C152.966 162.172 152.758 163.003 152.341 163.699C151.924 164.39 151.321 164.92 150.53 165.29C149.744 165.659 148.792 165.844 147.675 165.844H143.832V163.372H147.178C147.765 163.372 148.252 163.292 148.641 163.131C149.029 162.97 149.318 162.728 149.507 162.406C149.701 162.084 149.798 161.684 149.798 161.206C149.798 160.723 149.701 160.316 149.507 159.984C149.318 159.653 149.027 159.402 148.634 159.232C148.245 159.056 147.755 158.969 147.163 158.969H145.089V171H142.014ZM149.869 164.381L153.484 171H150.089L146.553 164.381H149.869ZM155.139 171V156.455H164.94V158.99H158.214V162.456H164.436V164.991H158.214V168.464H164.969V171H155.139ZM170.013 156.455L173.529 167.506H173.664L177.186 156.455H180.596L175.581 171H171.618L166.597 156.455H170.013ZM185.422 156.455V171H182.346V156.455H185.422ZM187.952 171V156.455H197.753V158.99H191.027V162.456H197.249V164.991H191.027V168.464H197.781V171H187.952ZM203.472 171L199.31 156.455H202.669L205.077 166.561H205.198L207.854 156.455H210.73L213.38 166.582H213.507L215.915 156.455H219.275L215.113 171H212.115L209.346 161.49H209.232L206.469 171H203.472Z"
        fill="#2514BE" />
    <defs>
        <filter id="filter0_d_25_13353" x="0" y="0" width="264" height="224"
            filterUnits="userSpaceOnUse"
            color-interpolation-filters="sRGB">
            <feFlood flood-opacity="0" result="BackgroundImageFix" />
            <feColorMatrix in="SourceAlpha" type="matrix"
                values="0 0 0 0 0 0 0 0 0 0 0 0 0 0 0 0 0 0 127 0"
                result="hardAlpha" />
            <feOffset />
            <feGaussianBlur stdDeviation="6" />
            <feComposite in2="hardAlpha" operator="out" />
            <feColorMatrix type="matrix" values="0 0 0 0 0 0 0 0 0 0 0 0 0 0 0 0 0 0 0.1 0" />
            <feBlend mode="normal" in2="BackgroundImageFix" result="effect1_dropShadow_25_13353" />
            <feBlend mode="normal" in="SourceGraphic" in2="effect1_dropShadow_25_13353"
                result="shape" />
        </filter>
    </defs>
</svg>