<svg width="264" height="224" viewBox="0 0 264 224" fill="none" xmlns="http://www.w3.org/2000/svg">
      <g filter="url(#filter0_d_25_13352)">
            <rect x="12" y="12" width="240" height="200" rx="16" fill="white" />
      </g>
      <path
            d="M132.664 81.6524C139.854 81.6524 145.682 74.6326 145.682 65.9734C145.682 57.3141 139.854 50.2944 132.664 50.2944C125.475 50.2944 119.646 57.3141 119.646 65.9734C119.646 74.6326 125.475 81.6524 132.664 81.6524Z"
            fill="#BCB6F5" />
      <path fill-rule="evenodd" clip-rule="evenodd"
            d="M147.168 59.6657C147.168 56.5716 145.937 53.6044 143.747 51.4167C141.556 49.229 138.586 48 135.488 48H129.84C128.306 47.9998 126.787 48.3014 125.37 48.8876C123.953 49.4737 122.665 50.333 121.581 51.4163C120.496 52.4995 119.636 53.7856 119.049 55.201C118.462 56.6165 118.16 58.1336 118.16 59.6657V70.8086C118.161 74.6505 119.69 78.3345 122.409 81.0506C125.129 83.7667 128.818 85.2926 132.664 85.2926C136.51 85.2926 140.198 83.7666 142.917 81.0504C145.637 78.3342 147.165 74.6502 147.165 70.8086L147.168 59.6657ZM143.152 59.6657V70.8086C143.152 72.1843 142.88 73.5464 142.353 74.8172C141.826 76.088 141.053 77.2427 140.079 78.2153C139.106 79.1878 137.949 79.9592 136.677 80.4854C135.405 81.0117 134.041 81.2825 132.664 81.2822C129.884 81.281 127.217 80.1772 125.251 78.2133C123.285 76.2494 122.18 73.5861 122.179 70.8086V59.6657C122.179 57.6356 122.987 55.6888 124.424 54.2535C125.861 52.8182 127.81 52.0118 129.843 52.0118H135.491C137.524 52.0118 139.473 52.8182 140.91 54.2535C142.347 55.6888 143.155 57.6356 143.155 59.6657H143.152Z"
            fill="#6165DE" />
      <path fill-rule="evenodd" clip-rule="evenodd"
            d="M124.977 86.8047C124.096 86.3507 123.136 86.0847 122.155 86.0226C121.173 85.9605 120.189 86.1036 119.261 86.4432H119.243C114.187 88.3508 109.819 91.8245 106.735 96.3927C103.65 100.961 101.997 106.402 102 111.977V120.337C102 122.37 102.78 124.319 104.167 125.756C105.554 127.193 107.436 128 109.397 128H154.604C156.566 128 158.447 127.192 159.833 125.755C161 125 161.779 123.508 161.78 121.476L162 111.977C162 106.403 160.346 100.963 157.261 96.395C154.176 91.8273 149.811 88.353 144.756 86.4432L144.734 86.4352C143.802 86.0938 142.812 85.9509 141.825 86.0149C140.838 86.0789 139.873 86.3486 138.989 86.8079C136.81 87.899 134.42 88.4632 131.999 88.4576C129.57 88.462 127.17 87.8986 124.98 86.8095L124.977 86.8047ZM123.194 90.5532L123.223 90.5691C125.96 91.9354 128.96 92.643 131.998 92.6393C135.037 92.6457 138.038 91.935 140.773 90.5612L140.795 90.55C141.193 90.3405 141.628 90.2165 142.074 90.1853C142.519 90.1542 142.966 90.2164 143.388 90.3685C147.665 91.9856 151.358 94.9263 153.967 98.7917C156.576 102.657 157.975 107.26 157.973 111.977V120.337C157.973 120.795 157.887 121.248 157.718 121.671C157.549 122.093 157.301 122.477 156.989 122.801C156.677 123.125 156.307 123.381 155.899 123.556C155.491 123.731 155.054 123.822 154.612 123.822H109.397C108.956 123.822 108.518 123.732 108.11 123.557C107.702 123.382 107.331 123.125 107.019 122.802C106.707 122.478 106.459 122.094 106.29 121.671C106.121 121.248 106.034 120.795 106.034 120.337V111.977C106.033 107.263 107.431 102.663 110.039 98.8002C112.647 94.9373 116.338 91.9987 120.612 90.3828C121.032 90.2313 121.476 90.1683 121.92 90.1975C122.363 90.2268 122.797 90.3477 123.194 90.5532Z"
            fill="#6165DE" />
      <path
            d="M147.27 107.361V109.73C147.253 110.338 147 110.915 146.564 111.339C146.128 111.763 145.544 112 144.937 112C144.329 112 143.745 111.763 143.309 111.339C142.873 110.915 142.62 110.338 142.603 109.73V107.361H140.27C139.662 107.344 139.085 107.091 138.661 106.656C138.237 106.22 138 105.636 138 105.028C138 104.42 138.237 103.836 138.661 103.401C139.085 102.965 139.662 102.712 140.27 102.695H142.603V100.398C142.595 100.086 142.649 99.7761 142.762 99.4856C142.876 99.195 143.046 98.9301 143.263 98.7065C143.481 98.4829 143.741 98.3052 144.028 98.1839C144.316 98.0625 144.625 98 144.937 98C145.248 98 145.557 98.0625 145.844 98.1839C146.132 98.3052 146.392 98.4829 146.609 98.7065C146.827 98.9301 146.997 99.195 147.111 99.4856C147.224 99.7761 147.278 100.086 147.27 100.398V102.695H149.602C149.913 102.686 150.224 102.74 150.514 102.854C150.805 102.967 151.07 103.138 151.293 103.355C151.517 103.573 151.695 103.833 151.816 104.12C151.937 104.407 152 104.716 152 105.028C152 105.34 151.937 105.649 151.816 105.936C151.695 106.223 151.517 106.484 151.293 106.701C151.07 106.919 150.805 107.089 150.514 107.202C150.224 107.316 149.913 107.37 149.602 107.361H147.27Z"
            fill="#6165DE" />
      <path
            d="M66.1353 156.455H69.9279L73.9336 166.227H74.104L78.1097 156.455H81.9023V171H78.9194V161.533H78.7987L75.0344 170.929H73.0032L69.239 161.497H69.1183V171H66.1353V156.455ZM83.5838 156.455H87.0284L90.3452 162.719H90.4872L93.804 156.455H97.2486L91.9432 165.858V171H88.8892V165.858L83.5838 156.455ZM103.557 171V156.455H109.296C110.399 156.455 111.339 156.665 112.115 157.087C112.892 157.503 113.484 158.083 113.891 158.827C114.303 159.565 114.509 160.418 114.509 161.384C114.509 162.349 114.301 163.202 113.884 163.94C113.467 164.679 112.864 165.254 112.073 165.666C111.287 166.078 110.335 166.284 109.218 166.284H105.56V163.82H108.721C109.312 163.82 109.8 163.718 110.184 163.514C110.572 163.306 110.861 163.019 111.05 162.655C111.244 162.286 111.341 161.862 111.341 161.384C111.341 160.901 111.244 160.479 111.05 160.119C110.861 159.755 110.572 159.473 110.184 159.274C109.795 159.071 109.303 158.969 108.706 158.969H106.632V171H103.557ZM117.334 171H114.038L119.06 156.455H123.023L128.037 171H124.741L121.098 159.778H120.984L117.334 171ZM117.128 165.283H124.912V167.683H117.128V165.283ZM127.456 158.99V156.455H139.402V158.99H134.949V171H131.909V158.99H127.456ZM144.445 156.455V171H141.37V156.455H144.445ZM146.975 171V156.455H156.776V158.99H150.05V162.456H156.272V164.991H150.05V168.464H156.805V171H146.975ZM171.387 156.455V171H168.731L162.403 161.845H162.297V171H159.221V156.455H161.92L168.199 165.602H168.326V156.455H171.387ZM173.374 158.99V156.455H185.32V158.99H180.867V171H177.827V158.99H173.374ZM195.178 160.638C195.121 160.065 194.878 159.62 194.447 159.303C194.016 158.985 193.431 158.827 192.692 158.827C192.191 158.827 191.767 158.898 191.421 159.04C191.076 159.177 190.81 159.369 190.626 159.615C190.446 159.861 190.356 160.141 190.356 160.453C190.346 160.714 190.401 160.941 190.519 161.135C190.642 161.329 190.81 161.497 191.023 161.639C191.237 161.777 191.483 161.897 191.762 162.001C192.041 162.101 192.34 162.186 192.657 162.257L193.964 162.57C194.598 162.712 195.181 162.901 195.711 163.138C196.241 163.375 196.701 163.666 197.089 164.011C197.477 164.357 197.778 164.764 197.991 165.233C198.209 165.702 198.32 166.239 198.325 166.845C198.32 167.735 198.093 168.507 197.643 169.161C197.198 169.809 196.554 170.313 195.711 170.673C194.873 171.028 193.862 171.206 192.678 171.206C191.504 171.206 190.481 171.026 189.61 170.666C188.744 170.306 188.067 169.774 187.579 169.068C187.096 168.358 186.843 167.48 186.819 166.433H189.795C189.828 166.921 189.968 167.328 190.214 167.655C190.465 167.977 190.799 168.221 191.215 168.386C191.637 168.547 192.112 168.628 192.643 168.628C193.164 168.628 193.616 168.552 193.999 168.401C194.388 168.249 194.688 168.038 194.901 167.768C195.114 167.499 195.221 167.188 195.221 166.838C195.221 166.511 195.124 166.237 194.93 166.014C194.74 165.792 194.461 165.602 194.092 165.446C193.727 165.29 193.28 165.148 192.749 165.02L191.165 164.622C189.939 164.324 188.971 163.857 188.261 163.223C187.55 162.589 187.198 161.734 187.202 160.659C187.198 159.778 187.432 159.009 187.906 158.351C188.384 157.693 189.04 157.179 189.873 156.81C190.706 156.44 191.653 156.256 192.714 156.256C193.793 156.256 194.736 156.44 195.54 156.81C196.35 157.179 196.98 157.693 197.43 158.351C197.879 159.009 198.112 159.771 198.126 160.638H195.178Z"
            fill="#2514BE" />
      <defs>
            <filter id="filter0_d_25_13352" x="0" y="0" width="264" height="224"
                  filterUnits="userSpaceOnUse"
                  color-interpolation-filters="sRGB">
                  <feFlood flood-opacity="0" result="BackgroundImageFix" />
                  <feColorMatrix in="SourceAlpha" type="matrix"
                        values="0 0 0 0 0 0 0 0 0 0 0 0 0 0 0 0 0 0 127 0"
                        result="hardAlpha" />
                  <feOffset />
                  <feGaussianBlur stdDeviation="6" />
                  <feComposite in2="hardAlpha" operator="out" />
                  <feColorMatrix type="matrix" values="0 0 0 0 0 0 0 0 0 0 0 0 0 0 0 0 0 0 0.1 0" />
                  <feBlend mode="normal" in2="BackgroundImageFix"
                        result="effect1_dropShadow_25_13352" />
                  <feBlend mode="normal" in="SourceGraphic" in2="effect1_dropShadow_25_13352"
                        result="shape" />
            </filter>
      </defs>
</svg>