<svg width="264" height="223" viewBox="0 0 264 223" fill="none" xmlns="http://www.w3.org/2000/svg">
    <g filter="url(#filter0_d_1_441)">
        <rect x="12" y="12" width="240" height="199" rx="16" fill="white" />
    </g>
    <g clip-path="url(#clip0_1_441)">
        <path
            d="M166.733 87.3744C166.138 86.7177 165.528 86.0509 164.989 85.384C164.1 84.4465 163.794 83.1405 164.186 81.9413C164.838 80.0138 165.111 77.9897 164.989 75.9701C164.439 67.7934 159.871 48.6965 129.412 47.7605C117.383 47.4051 108.031 50.3739 101.638 56.6143C92.3526 65.6845 92.7082 78.4021 92.8112 80.2302C92.7535 81.5318 92.9251 86.4808 98.3196 94.2173L99.318 93.2813C100.335 92.3205 101.641 91.6711 103.059 91.4196C98.5832 85.0067 98.41 81.1764 98.41 80.6075V80.5315C98.4256 80.3677 98.4288 80.201 98.421 80.0372C98.41 79.929 97.5708 68.1692 105.675 60.2514C110.92 55.1299 118.838 52.6875 129.237 53.0107C154.164 53.7742 158.835 67.9338 159.398 76.3035C159.473 77.6958 159.278 79.088 158.824 80.413C157.902 83.2458 158.553 86.3229 160.557 88.6116C161.153 89.3326 161.819 90.0639 162.473 90.7849C163.587 92.0002 165.652 94.2816 165.629 95.0026C165.601 95.0436 165.567 95.0801 165.526 95.1094L161.796 97.1218C161.252 97.4157 160.827 97.872 160.593 98.4175C160.359 98.963 160.325 99.5685 160.5 100.133C160.729 100.864 161.2 102.328 161.706 103.523C161.521 103.652 161.326 103.782 161.155 103.878C160.5 104.251 160.036 104.858 159.869 105.557C159.703 106.258 159.848 106.992 160.27 107.59C160.306 107.641 160.337 107.695 160.362 107.751C159.236 108.623 158.442 109.813 158.099 111.144C157.756 112.475 157.882 113.873 158.458 115.132C158.69 115.78 158.542 116.495 158.068 117.016C157.598 117.579 156.831 117.845 156.082 117.705C154.085 117.425 147.463 115.381 141.265 113.346C141.173 113.305 141.078 113.273 140.978 113.25C138.705 112.497 136.49 111.754 134.597 111.109C134.523 111.072 134.44 111.047 134.356 111.034C134.206 110.992 131.532 110.141 130.27 105.364C128.348 105.494 126.415 105.426 124.509 105.159C126.173 113.605 131.44 115.682 132.727 116.058C133.335 116.263 135.092 116.865 137.387 117.629L137.376 121.019H107.146C108.118 118.009 108.793 114.923 109.166 111.798L106.377 114.413C105.299 115.425 104 116.204 102.566 116.694C102.056 118.718 101.408 120.708 100.627 122.654C100.279 123.464 100.382 124.382 100.901 125.106C101.421 125.83 102.29 126.266 103.22 126.269H140.174C140.914 126.267 141.624 125.991 142.148 125.501C142.672 125.011 142.97 124.347 142.975 123.654L142.986 119.458C147.909 121.039 153.143 122.611 155.266 122.901C157.963 123.29 160.679 122.316 162.411 120.34C164.142 118.363 164.634 115.676 163.701 113.272C163.356 112.432 163.403 112.175 164.607 111.271C165.264 110.767 165.748 110.094 165.997 109.335C166.248 108.574 166.256 107.763 166.019 107.001C168.453 104.817 167.602 102.891 167.223 102.277C166.953 101.742 166.727 101.187 166.546 100.62L168.556 99.5436C168.682 99.4705 168.805 99.3915 168.924 99.3067C170.204 98.4 171.027 97.0369 171.195 95.5408C171.482 92.5823 169.072 89.9352 166.73 87.3744H166.733Z"
            fill="#6165DE" stroke="white" stroke-miterlimit="10" />
        <path
            d="M110.472 103.729C110.86 103.365 111.079 102.872 111.079 102.357C111.079 101.843 110.86 101.35 110.472 100.986L114.044 97.638C114.718 96.9989 115.774 96.8848 116.586 97.3601C122.812 101.079 130.599 101.666 137.379 98.925C144.159 96.1843 149.049 90.4719 150.438 83.6743C151.826 76.8768 149.531 69.8745 144.312 64.9811C139.092 60.0876 131.624 57.9349 124.372 59.235C117.121 60.5352 111.027 65.1185 108.102 71.4744C105.177 77.8289 105.801 85.131 109.768 90.9677C110.279 91.7296 110.157 92.7212 109.475 93.353L105.903 96.7006C105.514 96.3364 104.989 96.1317 104.439 96.1317C103.89 96.1317 103.365 96.3364 102.976 96.7006L95.2292 103.963C94.2339 104.896 93.677 106.16 93.677 107.477C93.677 108.795 94.2355 110.06 95.2292 110.992C96.2229 111.925 97.5723 112.447 98.9779 112.447C100.383 112.447 101.733 111.923 102.727 110.992L110.474 103.729H110.472ZM128.54 64.0729C132.98 64.0729 137.237 65.7255 140.376 68.6694C143.514 71.6134 145.279 75.603 145.279 79.7652C145.279 83.9273 143.516 87.9184 140.376 90.8609C137.235 93.8034 132.98 95.456 128.54 95.456C124.1 95.456 119.843 93.8034 116.704 90.8609C113.565 87.9184 111.801 83.9273 111.801 79.7652C111.807 75.6044 113.572 71.6177 116.709 68.6753C119.846 65.7328 124.102 64.0787 128.538 64.0743L128.54 64.0729Z"
            fill="#6165DE" stroke="white" stroke-miterlimit="10" />
        <path
            d="M137.04 87.7283C139.352 85.5682 140.624 82.6199 140.566 79.5619C140.507 76.5039 139.123 73.5994 136.73 71.5198C134.337 69.4401 131.145 68.3637 127.888 68.5392C127.735 71.3106 126.492 73.9299 124.4 75.8925C122.308 77.8552 119.512 79.0208 116.556 79.1626C116.375 82.2177 117.528 85.2085 119.749 87.449C121.971 89.6895 125.07 90.9852 128.332 91.0379C131.594 91.0905 134.739 89.8957 137.042 87.7283H137.04Z"
            fill="#BCB6F5" />
    </g>
    <path
        d="M46.4673 170V155.455H52.206C53.3092 155.455 54.2491 155.665 55.0256 156.087C55.8021 156.503 56.3939 157.083 56.8011 157.827C57.2131 158.565 57.419 159.418 57.419 160.384C57.419 161.349 57.2107 162.202 56.794 162.94C56.3774 163.679 55.7737 164.254 54.983 164.666C54.197 165.078 53.2453 165.284 52.1278 165.284H48.4702V162.82H51.6307C52.2225 162.82 52.7102 162.718 53.0938 162.514C53.482 162.306 53.7708 162.019 53.9602 161.655C54.1544 161.286 54.2514 160.862 54.2514 160.384C54.2514 159.901 54.1544 159.479 53.9602 159.119C53.7708 158.755 53.482 158.473 53.0938 158.274C52.7055 158.071 52.2131 157.969 51.6165 157.969H49.5426V170H46.4673ZM67.3072 159.638C67.2504 159.065 67.0065 158.62 66.5756 158.303C66.1448 157.985 65.56 157.827 64.8214 157.827C64.3195 157.827 63.8957 157.898 63.5501 158.04C63.2044 158.177 62.9393 158.369 62.7546 158.615C62.5747 158.861 62.4847 159.141 62.4847 159.453C62.4753 159.714 62.5297 159.941 62.6481 160.135C62.7712 160.329 62.9393 160.497 63.1523 160.639C63.3654 160.777 63.6116 160.897 63.891 161.001C64.1703 161.101 64.4686 161.186 64.7859 161.257L66.0927 161.57C66.7272 161.712 67.3095 161.901 67.8398 162.138C68.3701 162.375 68.8294 162.666 69.2177 163.011C69.6059 163.357 69.9066 163.764 70.1197 164.233C70.3375 164.702 70.4487 165.239 70.4535 165.845C70.4487 166.735 70.2215 167.507 69.7717 168.161C69.3266 168.809 68.6826 169.313 67.8398 169.673C67.0018 170.028 65.9909 170.206 64.8072 170.206C63.6329 170.206 62.6102 170.026 61.739 169.666C60.8725 169.306 60.1954 168.774 59.7077 168.068C59.2248 167.358 58.9715 166.48 58.9478 165.433H61.9237C61.9568 165.921 62.0965 166.328 62.3427 166.655C62.5936 166.977 62.9274 167.221 63.3441 167.386C63.7655 167.547 64.2414 167.628 64.7717 167.628C65.2925 167.628 65.7447 167.552 66.1282 167.401C66.5165 167.249 66.8171 167.038 67.0302 166.768C67.2433 166.499 67.3498 166.188 67.3498 165.838C67.3498 165.511 67.2527 165.237 67.0586 165.014C66.8692 164.792 66.5898 164.602 66.2205 164.446C65.8559 164.29 65.4085 164.148 64.8782 164.02L63.2944 163.622C62.0681 163.324 61.0998 162.857 60.3896 162.223C59.6793 161.589 59.3266 160.734 59.3313 159.659C59.3266 158.778 59.561 158.009 60.0344 157.351C60.5127 156.693 61.1684 156.179 62.0018 155.81C62.8351 155.44 63.7821 155.256 64.8427 155.256C65.9222 155.256 66.8645 155.44 67.6694 155.81C68.479 156.179 69.1088 156.693 69.5586 157.351C70.0084 158.009 70.2404 158.771 70.2546 159.638H67.3072ZM71.6697 155.455H75.1143L78.4311 161.719H78.5732L81.8899 155.455H85.3345L80.0291 164.858V170H76.9751V164.858L71.6697 155.455ZM98.9691 160.547H95.8583C95.8015 160.144 95.6855 159.787 95.5103 159.474C95.3351 159.157 95.1102 158.887 94.8356 158.665C94.561 158.442 94.2437 158.272 93.8839 158.153C93.5288 158.035 93.1429 157.976 92.7262 157.976C91.9734 157.976 91.3176 158.163 90.7589 158.537C90.2002 158.906 89.7669 159.446 89.4592 160.156C89.1514 160.862 88.9975 161.719 88.9975 162.727C88.9975 163.764 89.1514 164.635 89.4592 165.341C89.7717 166.046 90.2073 166.579 90.766 166.939C91.3247 167.299 91.971 167.479 92.7049 167.479C93.1168 167.479 93.498 167.424 93.8484 167.315C94.2035 167.206 94.5183 167.048 94.793 166.839C95.0676 166.626 95.2949 166.368 95.4748 166.065C95.6594 165.762 95.7873 165.417 95.8583 165.028L98.9691 165.043C98.8886 165.71 98.6874 166.354 98.3654 166.974C98.0482 167.59 97.6197 168.142 97.0799 168.629C96.5449 169.112 95.9057 169.496 95.1623 169.78C94.4237 170.059 93.5879 170.199 92.6552 170.199C91.3578 170.199 90.1978 169.905 89.1751 169.318C88.1571 168.731 87.3522 167.881 86.7603 166.768C86.1732 165.656 85.8796 164.309 85.8796 162.727C85.8796 161.141 86.1779 159.792 86.7745 158.679C87.3711 157.566 88.1808 156.719 89.2035 156.136C90.2262 155.549 91.3768 155.256 92.6552 155.256C93.498 155.256 94.2792 155.374 94.9989 155.611C95.7234 155.848 96.3649 156.193 96.9237 156.648C97.4824 157.098 97.9369 157.649 98.2873 158.303C98.6424 158.956 98.8697 159.704 98.9691 160.547ZM101.174 170V155.455H104.25V161.456H110.493V155.455H113.561V170H110.493V163.991H104.25V170H101.174ZM129.463 162.727C129.463 164.313 129.162 165.663 128.561 166.776C127.964 167.888 127.15 168.738 126.118 169.325C125.09 169.908 123.935 170.199 122.652 170.199C121.359 170.199 120.199 169.905 119.172 169.318C118.144 168.731 117.332 167.881 116.735 166.768C116.139 165.656 115.841 164.309 115.841 162.727C115.841 161.141 116.139 159.792 116.735 158.679C117.332 157.566 118.144 156.719 119.172 156.136C120.199 155.549 121.359 155.256 122.652 155.256C123.935 155.256 125.09 155.549 126.118 156.136C127.15 156.719 127.964 157.566 128.561 158.679C129.162 159.792 129.463 161.141 129.463 162.727ZM126.345 162.727C126.345 161.7 126.191 160.833 125.883 160.128C125.58 159.422 125.152 158.887 124.598 158.523C124.044 158.158 123.395 157.976 122.652 157.976C121.908 157.976 121.26 158.158 120.706 158.523C120.152 158.887 119.721 159.422 119.413 160.128C119.11 160.833 118.958 161.7 118.958 162.727C118.958 163.755 119.11 164.621 119.413 165.327C119.721 166.032 120.152 166.567 120.706 166.932C121.26 167.296 121.908 167.479 122.652 167.479C123.395 167.479 124.044 167.296 124.598 166.932C125.152 166.567 125.58 166.032 125.883 165.327C126.191 164.621 126.345 163.755 126.345 162.727ZM131.741 170V155.455H134.816V167.464H141.052V170H131.741ZM155.888 162.727C155.888 164.313 155.588 165.663 154.987 166.776C154.39 167.888 153.576 168.738 152.543 169.325C151.516 169.908 150.361 170.199 149.077 170.199C147.785 170.199 146.625 169.905 145.597 169.318C144.57 168.731 143.758 167.881 143.161 166.768C142.565 165.656 142.266 164.309 142.266 162.727C142.266 161.141 142.565 159.792 143.161 158.679C143.758 157.566 144.57 156.719 145.597 156.136C146.625 155.549 147.785 155.256 149.077 155.256C150.361 155.256 151.516 155.549 152.543 156.136C153.576 156.719 154.39 157.566 154.987 158.679C155.588 159.792 155.888 161.141 155.888 162.727ZM152.771 162.727C152.771 161.7 152.617 160.833 152.309 160.128C152.006 159.422 151.577 158.887 151.023 158.523C150.469 158.158 149.821 157.976 149.077 157.976C148.334 157.976 147.685 158.158 147.131 158.523C146.577 158.887 146.147 159.422 145.839 160.128C145.536 160.833 145.384 161.7 145.384 162.727C145.384 163.755 145.536 164.621 145.839 165.327C146.147 166.032 146.577 166.567 147.131 166.932C147.685 167.296 148.334 167.479 149.077 167.479C149.821 167.479 150.469 167.296 151.023 166.932C151.577 166.567 152.006 166.032 152.309 165.327C152.617 164.621 152.771 163.755 152.771 162.727ZM167.811 160.156C167.712 159.811 167.572 159.505 167.392 159.24C167.212 158.97 166.992 158.743 166.732 158.558C166.476 158.369 166.183 158.224 165.851 158.125C165.525 158.026 165.162 157.976 164.765 157.976C164.021 157.976 163.368 158.161 162.804 158.53C162.246 158.899 161.81 159.437 161.498 160.142C161.185 160.843 161.029 161.7 161.029 162.713C161.029 163.726 161.183 164.588 161.49 165.298C161.798 166.009 162.234 166.551 162.797 166.925C163.361 167.294 164.026 167.479 164.793 167.479C165.489 167.479 166.083 167.356 166.576 167.109C167.073 166.858 167.452 166.506 167.712 166.051C167.977 165.597 168.11 165.059 168.11 164.439L168.735 164.531H164.985V162.216H171.071V164.048C171.071 165.327 170.801 166.425 170.262 167.344C169.722 168.258 168.979 168.963 168.032 169.46C167.085 169.953 166 170.199 164.779 170.199C163.415 170.199 162.217 169.898 161.185 169.297C160.153 168.691 159.348 167.831 158.77 166.719C158.197 165.601 157.911 164.276 157.911 162.741C157.911 161.562 158.081 160.511 158.422 159.588C158.768 158.66 159.251 157.874 159.871 157.23C160.491 156.586 161.213 156.096 162.037 155.76C162.861 155.424 163.754 155.256 164.715 155.256C165.539 155.256 166.306 155.376 167.016 155.618C167.726 155.855 168.356 156.191 168.905 156.626C169.459 157.062 169.911 157.58 170.262 158.182C170.612 158.778 170.837 159.437 170.936 160.156H167.811ZM176.457 155.455V170H173.381V155.455H176.457ZM191.821 160.547H188.71C188.653 160.144 188.537 159.787 188.362 159.474C188.187 159.157 187.962 158.887 187.687 158.665C187.413 158.442 187.095 158.272 186.735 158.153C186.38 158.035 185.994 157.976 185.578 157.976C184.825 157.976 184.169 158.163 183.61 158.537C183.052 158.906 182.618 159.446 182.311 160.156C182.003 160.862 181.849 161.719 181.849 162.727C181.849 163.764 182.003 164.635 182.311 165.341C182.623 166.046 183.059 166.579 183.618 166.939C184.176 167.299 184.823 167.479 185.556 167.479C185.968 167.479 186.35 167.424 186.7 167.315C187.055 167.206 187.37 167.048 187.645 166.839C187.919 166.626 188.146 166.368 188.326 166.065C188.511 165.762 188.639 165.417 188.71 165.028L191.821 165.043C191.74 165.71 191.539 166.354 191.217 166.974C190.9 167.59 190.471 168.142 189.931 168.629C189.396 169.112 188.757 169.496 188.014 169.78C187.275 170.059 186.44 170.199 185.507 170.199C184.209 170.199 183.049 169.905 182.027 169.318C181.009 168.731 180.204 167.881 179.612 166.768C179.025 165.656 178.731 164.309 178.731 162.727C178.731 161.141 179.029 159.792 179.626 158.679C180.223 157.566 181.032 156.719 182.055 156.136C183.078 155.549 184.228 155.256 185.507 155.256C186.35 155.256 187.131 155.374 187.85 155.611C188.575 155.848 189.217 156.193 189.775 156.648C190.334 157.098 190.788 157.649 191.139 158.303C191.494 158.956 191.721 159.704 191.821 160.547ZM196.26 170H192.964L197.985 155.455H201.949L206.963 170H203.667L200.024 158.778H199.91L196.26 170ZM196.054 164.283H203.838V166.683H196.054V164.283ZM208.713 170V155.455H211.789V167.464H218.025V170H208.713Z"
        fill="#2514BE" />
    <defs>
        <filter id="filter0_d_1_441" x="0" y="0" width="264" height="223"
            filterUnits="userSpaceOnUse"
            color-interpolation-filters="sRGB">
            <feFlood flood-opacity="0" result="BackgroundImageFix" />
            <feColorMatrix in="SourceAlpha" type="matrix"
                values="0 0 0 0 0 0 0 0 0 0 0 0 0 0 0 0 0 0 127 0"
                result="hardAlpha" />
            <feOffset />
            <feGaussianBlur stdDeviation="6" />
            <feComposite in2="hardAlpha" operator="out" />
            <feColorMatrix type="matrix" values="0 0 0 0 0 0 0 0 0 0 0 0 0 0 0 0 0 0 0.1 0" />
            <feBlend mode="normal" in2="BackgroundImageFix" result="effect1_dropShadow_1_441" />
            <feBlend mode="normal" in="SourceGraphic" in2="effect1_dropShadow_1_441" result="shape" />
        </filter>
        <clipPath id="clip0_1_441">
            <rect width="80" height="80" fill="white" transform="translate(92 47)" />
        </clipPath>
    </defs>
</svg>