<svg width="264" height="224" viewBox="0 0 264 224" fill="none" xmlns="http://www.w3.org/2000/svg">
      <g filter="url(#filter0_d_25_13362)">
            <rect x="12" y="12" width="240" height="200" rx="16" fill="white" />
      </g>
      <path
            d="M83.1568 160.638C83.1 160.065 82.8561 159.62 82.4252 159.303C81.9944 158.985 81.4096 158.827 80.671 158.827C80.1691 158.827 79.7453 158.898 79.3997 159.04C79.054 159.177 78.7889 159.369 78.6042 159.615C78.4243 159.861 78.3343 160.141 78.3343 160.453C78.3249 160.714 78.3793 160.941 78.4977 161.135C78.6208 161.329 78.7889 161.497 79.002 161.639C79.215 161.777 79.4612 161.897 79.7406 162.001C80.0199 162.101 80.3182 162.186 80.6355 162.257L81.9423 162.57C82.5768 162.712 83.1592 162.901 83.6895 163.138C84.2198 163.375 84.679 163.666 85.0673 164.011C85.4556 164.357 85.7562 164.764 85.9693 165.233C86.1871 165.702 86.2984 166.239 86.3031 166.845C86.2984 167.735 86.0711 168.507 85.6213 169.161C85.1762 169.809 84.5323 170.313 83.6895 170.673C82.8514 171.028 81.8405 171.206 80.6568 171.206C79.4825 171.206 78.4598 171.026 77.5886 170.666C76.7221 170.306 76.045 169.774 75.5574 169.068C75.0744 168.358 74.8211 167.48 74.7974 166.433H77.7733C77.8064 166.921 77.9461 167.328 78.1923 167.655C78.4432 167.977 78.777 168.221 79.1937 168.386C79.6151 168.547 80.091 168.628 80.6213 168.628C81.1421 168.628 81.5943 168.552 81.9778 168.401C82.3661 168.249 82.6667 168.038 82.8798 167.768C83.0929 167.499 83.1994 167.188 83.1994 166.838C83.1994 166.511 83.1023 166.237 82.9082 166.014C82.7188 165.792 82.4395 165.602 82.0701 165.446C81.7056 165.29 81.2581 165.148 80.7278 165.02L79.144 164.622C77.9177 164.324 76.9494 163.857 76.2392 163.223C75.5289 162.589 75.1762 161.734 75.1809 160.659C75.1762 159.778 75.4106 159.009 75.8841 158.351C76.3623 157.693 77.0181 157.179 77.8514 156.81C78.6847 156.44 79.6317 156.256 80.6923 156.256C81.7718 156.256 82.7141 156.44 83.519 156.81C84.3287 157.179 84.9584 157.693 85.4082 158.351C85.858 159.009 86.09 159.771 86.1042 160.638H83.1568ZM101.205 161.547H98.0946C98.0378 161.144 97.9218 160.787 97.7466 160.474C97.5714 160.157 97.3465 159.887 97.0719 159.665C96.7973 159.442 96.4801 159.272 96.1202 159.153C95.7651 159.035 95.3792 158.976 94.9625 158.976C94.2097 158.976 93.5539 159.163 92.9952 159.537C92.4365 159.906 92.0033 160.446 91.6955 161.156C91.3877 161.862 91.2338 162.719 91.2338 163.727C91.2338 164.764 91.3877 165.635 91.6955 166.341C92.008 167.046 92.4436 167.579 93.0023 167.939C93.561 168.299 94.2073 168.479 94.9412 168.479C95.3532 168.479 95.7343 168.424 96.0847 168.315C96.4398 168.206 96.7547 168.048 97.0293 167.839C97.3039 167.626 97.5312 167.368 97.7111 167.065C97.8958 166.762 98.0236 166.417 98.0946 166.028L101.205 166.043C101.125 166.71 100.924 167.354 100.602 167.974C100.285 168.59 99.856 169.142 99.3162 169.629C98.7812 170.112 98.142 170.496 97.3986 170.78C96.66 171.059 95.8243 171.199 94.8915 171.199C93.5942 171.199 92.4341 170.905 91.4114 170.318C90.3934 169.731 89.5885 168.881 88.9966 167.768C88.4095 166.656 88.1159 165.309 88.1159 163.727C88.1159 162.141 88.4142 160.792 89.0108 159.679C89.6074 158.566 90.4171 157.719 91.4398 157.136C92.4625 156.549 93.6131 156.256 94.8915 156.256C95.7343 156.256 96.5156 156.374 97.2353 156.611C97.9597 156.848 98.6013 157.193 99.16 157.648C99.7187 158.098 100.173 158.649 100.524 159.303C100.879 159.956 101.106 160.704 101.205 161.547ZM103.411 171V156.455H109.149C110.248 156.455 111.185 156.651 111.962 157.044C112.743 157.432 113.337 157.984 113.744 158.699C114.156 159.409 114.362 160.245 114.362 161.206C114.362 162.172 114.154 163.003 113.737 163.699C113.321 164.39 112.717 164.92 111.926 165.29C111.14 165.659 110.189 165.844 109.071 165.844H105.229V163.372H108.574C109.161 163.372 109.649 163.292 110.037 163.131C110.425 162.97 110.714 162.728 110.904 162.406C111.098 162.084 111.195 161.684 111.195 161.206C111.195 160.723 111.098 160.316 110.904 159.984C110.714 159.653 110.423 159.402 110.03 159.232C109.642 159.056 109.152 158.969 108.56 158.969H106.486V171H103.411ZM111.266 164.381L114.881 171H111.486L107.949 164.381H111.266ZM116.536 171V156.455H126.337V158.99H119.611V162.456H125.833V164.991H119.611V168.464H126.365V171H116.536ZM128.782 171V156.455H138.583V158.99H131.857V162.456H138.079V164.991H131.857V168.464H138.611V171H128.782ZM153.194 156.455V171H150.538L144.21 161.845H144.103V171H141.028V156.455H143.727L150.005 165.602H150.133V156.455H153.194ZM158.81 156.455V171H155.735V156.455H158.81ZM173.507 156.455V171H170.85L164.522 161.845H164.416V171H161.34V156.455H164.039L170.318 165.602H170.445V156.455H173.507ZM185.692 161.156C185.593 160.811 185.453 160.505 185.273 160.24C185.093 159.97 184.873 159.743 184.613 159.558C184.357 159.369 184.064 159.224 183.732 159.125C183.405 159.026 183.043 158.976 182.645 158.976C181.902 158.976 181.249 159.161 180.685 159.53C180.126 159.899 179.691 160.437 179.378 161.142C179.066 161.843 178.91 162.7 178.91 163.713C178.91 164.726 179.064 165.588 179.371 166.298C179.679 167.009 180.115 167.551 180.678 167.925C181.242 168.294 181.907 168.479 182.674 168.479C183.37 168.479 183.964 168.356 184.456 168.109C184.954 167.858 185.332 167.506 185.593 167.051C185.858 166.597 185.991 166.059 185.991 165.439L186.616 165.531H182.866V163.216H188.952V165.048C188.952 166.327 188.682 167.425 188.143 168.344C187.603 169.258 186.859 169.963 185.912 170.46C184.965 170.953 183.881 171.199 182.66 171.199C181.296 171.199 180.098 170.898 179.066 170.297C178.034 169.691 177.229 168.831 176.651 167.719C176.078 166.601 175.792 165.276 175.792 163.741C175.792 162.562 175.962 161.511 176.303 160.588C176.649 159.66 177.132 158.874 177.752 158.23C178.372 157.586 179.094 157.096 179.918 156.76C180.742 156.424 181.635 156.256 182.596 156.256C183.42 156.256 184.187 156.376 184.897 156.618C185.607 156.855 186.237 157.191 186.786 157.626C187.34 158.062 187.792 158.58 188.143 159.182C188.493 159.778 188.718 160.437 188.817 161.156H185.692Z"
            fill="#2514BE" />
      <ellipse cx="129.072" cy="66.0982" rx="13.1081" ry="15.7876" fill="#BCB6F5" />
      <path
            d="M140.135 60.2465L140.134 59.7464C140.134 57.5695 139.268 55.482 137.727 53.9431C136.186 52.4041 134.096 51.5396 131.918 51.5396H126.23C124.051 51.5396 121.961 52.4041 120.42 53.9431C118.879 55.482 118.013 57.5695 118.013 59.7464V59.7465V70.9667V70.9669C118.014 73.8963 119.18 76.7052 121.253 78.7764C123.327 80.8475 126.138 82.0116 129.07 82.0129H129.071C130.523 82.0131 131.961 81.7276 133.303 81.1726C134.644 80.6176 135.864 79.8041 136.891 78.7784C137.918 77.7527 138.733 76.5349 139.289 75.1946C139.845 73.8543 140.131 72.4177 140.131 70.9668V70.9667V60.2465H140.135ZM126.227 48.5H126.227H131.915C134.901 48.5 137.765 49.685 139.877 51.7941C141.988 53.9032 143.175 56.7637 143.175 59.7464C143.175 59.7464 143.175 59.7465 143.175 59.7466L143.172 70.9666V70.9667C143.172 74.702 141.686 78.2844 139.042 80.9257C136.397 83.567 132.811 85.051 129.071 85.051C125.33 85.051 121.743 83.5671 119.098 80.9258C116.453 78.2846 114.967 74.7023 114.966 70.9667C114.966 70.9667 114.966 70.9666 114.966 70.9666L114.966 59.7465C114.966 58.2696 115.257 56.807 115.823 55.4425C116.389 54.078 117.218 52.8381 118.264 51.7937C119.31 50.7493 120.551 49.9209 121.917 49.3557C123.283 48.7906 124.748 48.4998 126.227 48.5Z"
            fill="#6269DB" stroke="#6269DB" />
      <path fill-rule="evenodd" clip-rule="evenodd"
            d="M145.697 105.9H137.609C137.082 105.914 136.582 106.133 136.214 106.511C135.847 106.888 135.642 107.393 135.642 107.92C135.642 108.446 135.847 108.951 136.214 109.328C136.582 109.706 137.082 109.925 137.609 109.939H145.697C145.967 109.947 146.236 109.9 146.488 109.802C146.74 109.704 146.969 109.556 147.163 109.368C147.357 109.18 147.511 108.954 147.616 108.706C147.721 108.457 147.775 108.19 147.775 107.92C147.775 107.649 147.721 107.382 147.616 107.133C147.511 106.885 147.357 106.659 147.163 106.471C146.969 106.283 146.74 106.135 146.488 106.037C146.236 105.939 145.967 105.892 145.697 105.9Z"
            fill="#6269DB" />
      <path
            d="M120.477 90.69L120.477 90.6901L120.499 90.7014C123.172 91.9866 126.102 92.6523 129.069 92.6487L129.07 92.6487C132.04 92.6547 134.973 91.9855 137.645 90.6917C137.646 90.6913 137.647 90.6908 137.648 90.6904L137.661 90.6837C137.662 90.6835 137.662 90.6832 137.663 90.683C138.121 90.4506 138.622 90.313 139.135 90.2783C139.649 90.2437 140.164 90.3129 140.651 90.4819L140.658 90.4844L140.658 90.4844C145.041 92.0824 148.826 94.9881 151.5 98.8078C154.174 102.627 155.608 107.176 155.607 111.837L120.477 90.69ZM120.477 90.69L120.468 90.6852M120.477 90.69L120.468 90.6852M120.468 90.6852C120.009 90.4568 119.51 90.3225 118.999 90.2899C118.488 90.2574 117.976 90.3274 117.492 90.4959L117.492 90.4958M120.468 90.6852L117.492 90.4958M117.492 90.4958L117.485 90.4983M117.492 90.4958L117.485 90.4983M117.485 90.4983C113.105 92.095 109.322 94.9987 106.649 98.8159C103.976 102.633 102.543 107.179 102.544 111.837C102.544 111.837 102.544 111.837 102.544 111.837M117.485 90.4983L102.544 111.837M155.607 119.916C155.607 119.916 155.607 119.916 155.607 119.917C155.607 120.424 155.507 120.927 155.313 121.396C155.118 121.866 154.833 122.292 154.474 122.651C154.115 123.01 153.688 123.295 153.218 123.489C152.749 123.684 152.246 123.784 151.737 123.784H106.415C106.415 123.784 106.415 123.784 106.415 123.784C105.907 123.784 105.403 123.684 104.934 123.49C104.464 123.296 104.037 123.011 103.678 122.652C103.318 122.293 103.033 121.866 102.838 121.397C102.644 120.927 102.544 120.424 102.544 119.917L155.607 119.916ZM155.607 119.916V111.837V119.916ZM102.544 111.837V119.916V111.837ZM104.155 97.0629C107.172 92.7562 111.435 89.4755 116.372 87.6608H116.388L116.469 87.6323C117.335 87.3263 118.255 87.1975 119.172 87.2534C120.046 87.3067 120.901 87.5265 121.691 87.9006L121.695 87.9063L121.819 87.9656C124.082 89.0505 126.561 89.6117 129.071 89.6075C131.572 89.6129 134.042 89.0507 136.295 87.9635L136.295 87.9635L136.301 87.9603C137.127 87.5465 138.029 87.3035 138.951 87.2458C139.874 87.1881 140.798 87.317 141.67 87.6246L141.687 87.6306C141.687 87.6308 141.688 87.631 141.688 87.6311C146.658 89.4419 150.951 92.7354 153.983 97.0651C157.017 101.395 158.643 106.552 158.643 111.837V119.916C158.643 119.916 158.643 119.916 158.643 119.917C158.643 121.748 157.914 123.504 156.618 124.799C155.322 126.094 153.563 126.821 151.73 126.822C151.73 126.822 151.73 126.822 151.73 126.822H106.415C104.581 126.822 102.822 126.094 101.526 124.799C100.229 123.504 99.5004 121.748 99.5 119.917C99.5 119.916 99.5 119.916 99.5 119.916L99.5 111.837L99.5 111.837C99.4968 106.552 101.122 101.394 104.155 97.0629Z"
            fill="#6269DB" stroke="#6269DB" />
      <path fill-rule="evenodd" clip-rule="evenodd"
            d="M143.676 111.991V103.912C143.683 103.642 143.636 103.373 143.538 103.122C143.44 102.87 143.292 102.641 143.104 102.447C142.915 102.254 142.69 102.1 142.441 101.995C142.192 101.89 141.924 101.835 141.654 101.835C141.383 101.835 141.116 101.89 140.867 101.995C140.618 102.1 140.392 102.254 140.204 102.447C140.015 102.641 139.867 102.87 139.769 103.122C139.671 103.373 139.624 103.642 139.632 103.912V111.991C139.646 112.517 139.866 113.017 140.243 113.384C140.621 113.751 141.127 113.956 141.654 113.956C142.18 113.956 142.686 113.751 143.064 113.384C143.442 113.017 143.661 112.517 143.676 111.991Z"
            fill="#6269DB" />
      <mask id="path-8-outside-1_25_13362" maskUnits="userSpaceOnUse" x="121.329" y="87.1973"
            width="41.4166"
            height="41.4072" fill="black">
            <rect fill="white" x="121.329" y="87.1973" width="41.4166" height="41.4072" />
            <path fill-rule="evenodd" clip-rule="evenodd"
                  d="M129.586 97.6299C127.633 100.027 126.435 102.948 126.144 106.025C125.759 110.149 127.027 114.258 129.67 117.449C132.313 120.641 136.115 122.655 140.243 123.051C143.323 123.342 146.421 122.714 149.144 121.247C151.867 119.78 154.093 117.539 155.541 114.807C156.989 112.076 157.594 108.977 157.279 105.903C156.964 102.828 155.743 99.9164 153.771 97.535C151.799 95.1536 149.164 93.4099 146.2 92.5243C143.236 91.6388 140.075 91.6512 137.118 92.56C134.16 93.4687 131.539 95.2331 129.586 97.6299ZM132.191 112.631C131.173 110.749 130.736 108.608 130.935 106.479C131.207 103.622 132.602 100.99 134.815 99.1607C137.027 97.3308 139.876 96.4525 142.736 96.7185C144.868 96.9198 146.892 97.7479 148.552 99.098C150.213 100.448 151.436 102.26 152.066 104.304C152.696 106.348 152.705 108.533 152.092 110.582C151.479 112.632 150.272 114.454 148.623 115.818C146.973 117.182 144.956 118.027 142.826 118.246C140.696 118.465 138.549 118.049 136.656 117.049C134.763 116.05 133.209 114.512 132.191 112.631Z" />
      </mask>
      <path fill-rule="evenodd" clip-rule="evenodd"
            d="M129.586 97.6299C127.633 100.027 126.435 102.948 126.144 106.025C125.759 110.149 127.027 114.258 129.67 117.449C132.313 120.641 136.115 122.655 140.243 123.051C143.323 123.342 146.421 122.714 149.144 121.247C151.867 119.78 154.093 117.539 155.541 114.807C156.989 112.076 157.594 108.977 157.279 105.903C156.964 102.828 155.743 99.9164 153.771 97.535C151.799 95.1536 149.164 93.4099 146.2 92.5243C143.236 91.6388 140.075 91.6512 137.118 92.56C134.16 93.4687 131.539 95.2331 129.586 97.6299ZM132.191 112.631C131.173 110.749 130.736 108.608 130.935 106.479C131.207 103.622 132.602 100.99 134.815 99.1607C137.027 97.3308 139.876 96.4525 142.736 96.7185C144.868 96.9198 146.892 97.7479 148.552 99.098C150.213 100.448 151.436 102.26 152.066 104.304C152.696 106.348 152.705 108.533 152.092 110.582C151.479 112.632 150.272 114.454 148.623 115.818C146.973 117.182 144.956 118.027 142.826 118.246C140.696 118.465 138.549 118.049 136.656 117.049C134.763 116.05 133.209 114.512 132.191 112.631Z"
            fill="#6269DB" />
      <path
            d="M126.144 106.025L123.157 105.747L123.157 105.743L126.144 106.025ZM129.67 117.449L131.981 115.536L131.981 115.536L129.67 117.449ZM140.243 123.051L139.96 126.037L139.956 126.037L140.243 123.051ZM149.144 121.247L150.566 123.888L149.144 121.247ZM155.541 114.807L158.192 116.212L155.541 114.807ZM157.279 105.903L154.294 106.209L154.294 106.209L157.279 105.903ZM153.771 97.535L156.082 95.6213L156.082 95.6213L153.771 97.535ZM146.2 92.5243L145.34 95.3987L146.2 92.5243ZM137.118 92.56L136.237 89.6924L137.118 92.56ZM130.935 106.479L127.948 106.199L127.949 106.195L130.935 106.479ZM132.191 112.631L129.552 114.059L129.552 114.059L132.191 112.631ZM134.815 99.1607L136.727 101.472L134.815 99.1607ZM142.736 96.7185L143.014 93.7315L143.018 93.7319L142.736 96.7185ZM152.066 104.304L149.199 105.188L149.199 105.188L152.066 104.304ZM152.092 110.582L149.218 109.724L152.092 110.582ZM148.623 115.818L150.534 118.129L150.534 118.129L148.623 115.818ZM142.826 118.246L142.52 115.262L142.52 115.262L142.826 118.246ZM136.656 117.049L135.255 119.702L135.255 119.702L136.656 117.049ZM123.157 105.743C123.504 102.075 124.932 98.592 127.261 95.735L131.911 99.5248C130.333 101.461 129.365 103.822 129.13 106.307L123.157 105.743ZM127.359 119.363C124.209 115.56 122.698 110.663 123.157 105.747L129.131 106.303C128.82 109.636 129.844 112.956 131.981 115.536L127.359 119.363ZM139.956 126.037C135.039 125.566 130.508 123.166 127.359 119.363L131.981 115.536C134.117 118.116 137.191 119.745 140.53 120.064L139.956 126.037ZM150.566 123.888C147.321 125.636 143.63 126.384 139.96 126.037L140.526 120.064C143.016 120.3 145.52 119.792 147.721 118.606L150.566 123.888ZM158.192 116.212C156.466 119.468 153.812 122.139 150.566 123.888L147.721 118.606C149.922 117.42 151.721 115.609 152.891 113.403L158.192 116.212ZM160.263 105.596C160.639 109.262 159.918 112.956 158.192 116.212L152.891 113.403C154.061 111.196 154.549 108.693 154.294 106.209L160.263 105.596ZM156.082 95.6213C158.432 98.4597 159.888 101.931 160.263 105.596L154.294 106.209C154.04 103.726 153.054 101.373 151.46 99.4486L156.082 95.6213ZM147.059 89.6499C150.591 90.7051 153.731 92.783 156.082 95.6213L151.46 99.4486C149.866 97.5242 147.737 96.1146 145.34 95.3987L147.059 89.6499ZM136.237 89.6924C139.761 88.6095 143.527 88.5947 147.059 89.6499L145.34 95.3987C142.944 94.6828 140.389 94.6929 137.998 95.4275L136.237 89.6924ZM127.261 95.735C129.589 92.878 132.713 90.7754 136.237 89.6924L137.998 95.4275C135.608 96.1621 133.49 97.5882 131.911 99.5248L127.261 95.735ZM133.922 106.758C133.778 108.296 134.094 109.843 134.829 111.202L129.552 114.059C128.252 111.655 127.693 108.92 127.948 106.199L133.922 106.758ZM136.727 101.472C135.127 102.795 134.118 104.698 133.922 106.762L127.949 106.195C128.296 102.547 130.078 99.1856 132.903 96.8492L136.727 101.472ZM142.457 99.7056C140.388 99.5131 138.327 100.149 136.727 101.472L132.903 96.8492C135.728 94.5129 139.364 93.392 143.014 93.7315L142.457 99.7056ZM146.659 101.426C145.459 100.45 143.995 99.8508 142.453 99.7052L143.018 93.7319C145.74 93.9888 148.325 95.046 150.445 96.7702L146.659 101.426ZM149.199 105.188C148.743 103.711 147.86 102.402 146.659 101.426L150.445 96.7702C152.566 98.4944 154.128 100.808 154.933 103.42L149.199 105.188ZM149.218 109.724C149.66 108.243 149.654 106.665 149.199 105.188L154.933 103.42C155.738 106.031 155.749 108.823 154.966 111.441L149.218 109.724ZM146.711 113.506C147.903 112.52 148.775 111.204 149.218 109.724L154.966 111.441C154.183 114.06 152.641 116.387 150.534 118.129L146.711 113.506ZM142.52 115.262C144.06 115.103 145.519 114.492 146.711 113.506L150.534 118.129C148.428 119.872 145.852 120.951 143.133 121.23L142.52 115.262ZM138.057 114.396C139.426 115.119 140.979 115.421 142.52 115.262L143.133 121.23C140.413 121.51 137.672 120.978 135.255 119.702L138.057 114.396ZM134.829 111.202C135.565 112.562 136.688 113.674 138.057 114.396L135.255 119.702C132.838 118.426 130.853 116.462 129.552 114.059L134.829 111.202Z"
            fill="white" mask="url(#path-8-outside-1_25_13362)" />
      <mask id="path-10-outside-2_25_13362" maskUnits="userSpaceOnUse" x="146.795" y="116.007"
            width="22.8881"
            height="22.8829" fill="black">
            <rect fill="white" x="146.795" y="116.007" width="22.8881" height="22.8829" />
            <path
                  d="M151.027 124.049C151.061 123.738 151.214 123.453 151.455 123.252L155.389 120.001C155.511 119.9 155.652 119.824 155.803 119.777C155.954 119.731 156.113 119.714 156.271 119.729C156.428 119.744 156.581 119.79 156.721 119.864C156.861 119.938 156.985 120.039 157.085 120.161L164.008 128.525C164.322 128.904 164.558 129.341 164.703 129.812C164.848 130.282 164.899 130.777 164.852 131.267C164.806 131.757 164.663 132.233 164.433 132.668C164.202 133.103 163.888 133.489 163.508 133.803C163.128 134.117 162.69 134.353 162.219 134.497C161.748 134.642 161.253 134.693 160.763 134.646C160.272 134.6 159.795 134.458 159.36 134.227C158.924 133.997 158.538 133.683 158.224 133.304L151.299 124.94C151.196 124.817 151.12 124.674 151.073 124.52C151.027 124.366 151.012 124.205 151.029 124.045L151.027 124.049Z" />
      </mask>
      <path
            d="M151.027 124.049C151.061 123.738 151.214 123.453 151.455 123.252L155.389 120.001C155.511 119.9 155.652 119.824 155.803 119.777C155.954 119.731 156.113 119.714 156.271 119.729C156.428 119.744 156.581 119.79 156.721 119.864C156.861 119.938 156.985 120.039 157.085 120.161L164.008 128.525C164.322 128.904 164.558 129.341 164.703 129.812C164.848 130.282 164.899 130.777 164.852 131.267C164.806 131.757 164.663 132.233 164.433 132.668C164.202 133.103 163.888 133.489 163.508 133.803C163.128 134.117 162.69 134.353 162.219 134.497C161.748 134.642 161.253 134.693 160.763 134.646C160.272 134.6 159.795 134.458 159.36 134.227C158.924 133.997 158.538 133.683 158.224 133.304L151.299 124.94C151.196 124.817 151.12 124.674 151.073 124.52C151.027 124.366 151.012 124.205 151.029 124.045L151.027 124.049Z"
            fill="#6269DB" />
      <path
            d="M151.027 124.049L153.769 125.266L148.045 123.724L151.027 124.049ZM151.455 123.252L149.535 120.948L149.544 120.94L151.455 123.252ZM155.389 120.001L157.303 122.311L157.3 122.313L155.389 120.001ZM157.085 120.161L154.774 122.074L154.772 122.072L157.085 120.161ZM164.008 128.525L161.697 130.438L161.696 130.438L164.008 128.525ZM158.224 133.304L155.913 135.218L155.913 135.217L158.224 133.304ZM151.299 124.94L153.607 123.023L153.61 123.027L151.299 124.94ZM151.029 124.045L148.287 122.829L154.012 124.365L151.029 124.045ZM148.045 123.724C148.163 122.64 148.698 121.645 149.535 120.948L153.375 125.557C153.731 125.26 153.959 124.836 154.009 124.374L148.045 123.724ZM149.544 120.94L153.478 117.689L157.3 122.313L153.366 125.564L149.544 120.94ZM153.476 117.691C153.902 117.338 154.393 117.073 154.921 116.91L156.685 122.644C156.911 122.575 157.12 122.462 157.303 122.311L153.476 117.691ZM154.921 116.91C155.449 116.748 156.004 116.691 156.554 116.743L155.988 122.716C156.222 122.738 156.459 122.714 156.685 122.644L154.921 116.91ZM156.554 116.743C157.104 116.795 157.638 116.955 158.126 117.213L155.316 122.515C155.524 122.625 155.753 122.694 155.988 122.716L156.554 116.743ZM158.126 117.213C158.614 117.472 159.047 117.824 159.399 118.251L154.772 122.072C154.923 122.254 155.107 122.404 155.316 122.515L158.126 117.213ZM159.397 118.248L166.319 126.612L161.696 130.438L154.774 122.074L159.397 118.248ZM166.318 126.611C166.884 127.294 167.309 128.081 167.57 128.928L161.836 130.695C161.807 130.602 161.76 130.514 161.697 130.438L166.318 126.611ZM167.57 128.928C167.831 129.776 167.923 130.666 167.839 131.549L161.866 130.985C161.875 130.888 161.865 130.789 161.836 130.695L167.57 128.928ZM167.839 131.549C167.755 132.432 167.499 133.289 167.083 134.073L161.782 131.264C161.828 131.177 161.856 131.082 161.866 130.985L167.839 131.549ZM167.083 134.073C166.668 134.856 166.102 135.55 165.419 136.115L161.597 131.49C161.673 131.428 161.736 131.351 161.782 131.264L167.083 134.073ZM165.419 136.115C164.735 136.68 163.948 137.104 163.1 137.365L161.339 131.63C161.433 131.601 161.521 131.553 161.597 131.49L165.419 136.115ZM163.1 137.365C162.253 137.625 161.362 137.716 160.48 137.633L161.045 131.66C161.144 131.669 161.244 131.659 161.339 131.63L163.1 137.365ZM160.48 137.633C159.598 137.55 158.74 137.294 157.957 136.879L160.763 131.575C160.85 131.622 160.946 131.65 161.045 131.66L160.48 137.633ZM157.957 136.879C157.173 136.465 156.479 135.9 155.913 135.218L160.535 131.39C160.598 131.466 160.675 131.529 160.763 131.575L157.957 136.879ZM155.913 135.217L148.988 126.854L153.61 123.027L160.535 131.39L155.913 135.217ZM148.991 126.858C148.632 126.426 148.364 125.926 148.201 125.388L153.945 123.652C153.876 123.422 153.76 123.208 153.607 123.023L148.991 126.858ZM148.201 125.388C148.039 124.85 147.986 124.285 148.046 123.726L154.012 124.365C154.038 124.125 154.015 123.883 153.945 123.652L148.201 125.388ZM153.771 125.262L153.769 125.266L148.285 122.833L148.287 122.829L153.771 125.262Z"
            fill="white" mask="url(#path-10-outside-2_25_13362)" />
      <ellipse opacity="0.4" cx="141.517" cy="107.29" rx="11.2309" ry="11.2172" fill="#BCB6F5" />
      <defs>
            <filter id="filter0_d_25_13362" x="0" y="0" width="264" height="224"
                  filterUnits="userSpaceOnUse"
                  color-interpolation-filters="sRGB">
                  <feFlood flood-opacity="0" result="BackgroundImageFix" />
                  <feColorMatrix in="SourceAlpha" type="matrix"
                        values="0 0 0 0 0 0 0 0 0 0 0 0 0 0 0 0 0 0 127 0"
                        result="hardAlpha" />
                  <feOffset />
                  <feGaussianBlur stdDeviation="6" />
                  <feComposite in2="hardAlpha" operator="out" />
                  <feColorMatrix type="matrix" values="0 0 0 0 0 0 0 0 0 0 0 0 0 0 0 0 0 0 0.1 0" />
                  <feBlend mode="normal" in2="BackgroundImageFix"
                        result="effect1_dropShadow_25_13362" />
                  <feBlend mode="normal" in="SourceGraphic" in2="effect1_dropShadow_25_13362"
                        result="shape" />
            </filter>
      </defs>
</svg>